<mxfile host="65bd71144e">
    <diagram id="5dDrmVdjHSumjW08Z-dL" name="Page-1">
        <mxGraphModel dx="1298" dy="1112" grid="1" gridSize="10" guides="1" tooltips="1" connect="1" arrows="1" fold="1" page="1" pageScale="1" pageWidth="827" pageHeight="1169" math="0" shadow="0">
            <root>
                <mxCell id="0"/>
                <mxCell id="1" parent="0"/>
                <mxCell id="33" value="" style="rounded=0;whiteSpace=wrap;html=1;" vertex="1" parent="1">
                    <mxGeometry x="870" y="180" width="480" height="1050" as="geometry"/>
                </mxCell>
                <mxCell id="73" style="edgeStyle=none;html=1;exitX=1;exitY=0.5;exitDx=0;exitDy=0;entryX=1;entryY=1;entryDx=0;entryDy=0;" edge="1" parent="1" source="66" target="34">
                    <mxGeometry relative="1" as="geometry">
                        <Array as="points">
                            <mxPoint x="1600" y="810"/>
                        </Array>
                    </mxGeometry>
                </mxCell>
                <mxCell id="66" value="" style="rounded=0;whiteSpace=wrap;html=1;fillColor=#f8cecc;strokeColor=#b85450;" vertex="1" parent="1">
                    <mxGeometry x="910" y="920" width="370" height="210" as="geometry"/>
                </mxCell>
                <mxCell id="2" value="" style="rounded=0;whiteSpace=wrap;html=1;" vertex="1" parent="1">
                    <mxGeometry x="90" y="170" width="480" height="720" as="geometry"/>
                </mxCell>
                <mxCell id="6" value="" style="rounded=0;whiteSpace=wrap;html=1;fillColor=#f8cecc;strokeColor=#b85450;" vertex="1" parent="1">
                    <mxGeometry x="120" y="210" width="340" height="210" as="geometry"/>
                </mxCell>
                <mxCell id="14" value="" style="rounded=1;whiteSpace=wrap;html=1;fillColor=#fff2cc;strokeColor=#d6b656;" vertex="1" parent="1">
                    <mxGeometry x="310" y="253" width="120" height="60" as="geometry"/>
                </mxCell>
                <mxCell id="13" value="" style="rounded=1;whiteSpace=wrap;html=1;fillColor=#fff2cc;strokeColor=#d6b656;" vertex="1" parent="1">
                    <mxGeometry x="130" y="253" width="120" height="60" as="geometry"/>
                </mxCell>
                <mxCell id="3" value="" style="image;aspect=fixed;html=1;points=[];align=center;fontSize=12;image=img/lib/azure2/networking/Virtual_Networks.svg;" vertex="1" parent="1">
                    <mxGeometry x="560" y="150" width="57" height="34.03" as="geometry"/>
                </mxCell>
                <mxCell id="4" value="shipping vnet" style="text;html=1;align=center;verticalAlign=middle;resizable=0;points=[];autosize=1;strokeColor=none;fillColor=none;" vertex="1" parent="1">
                    <mxGeometry x="560" y="120" width="90" height="30" as="geometry"/>
                </mxCell>
                <mxCell id="5" value="" style="image;aspect=fixed;html=1;points=[];align=center;fontSize=12;image=img/lib/azure2/networking/Subnet.svg;" vertex="1" parent="1">
                    <mxGeometry x="430" y="200" width="48" height="28.74" as="geometry"/>
                </mxCell>
                <mxCell id="7" value="shipping server -1" style="verticalLabelPosition=bottom;html=1;verticalAlign=top;align=center;strokeColor=none;fillColor=#00BEF2;shape=mxgraph.azure.virtual_machine;" vertex="1" parent="1">
                    <mxGeometry x="170" y="253" width="40" height="30" as="geometry"/>
                </mxCell>
                <mxCell id="8" value="Shipping server -2" style="verticalLabelPosition=bottom;html=1;verticalAlign=top;align=center;strokeColor=none;fillColor=#00BEF2;shape=mxgraph.azure.virtual_machine;" vertex="1" parent="1">
                    <mxGeometry x="350" y="256" width="40" height="27" as="geometry"/>
                </mxCell>
                <mxCell id="9" value="subnet-1" style="text;html=1;align=center;verticalAlign=middle;resizable=0;points=[];autosize=1;strokeColor=none;fillColor=none;" vertex="1" parent="1">
                    <mxGeometry x="430" y="170" width="70" height="30" as="geometry"/>
                </mxCell>
                <mxCell id="15" value="ssh,http" style="image;aspect=fixed;html=1;points=[];align=center;fontSize=12;image=img/lib/azure2/networking/Network_Security_Groups.svg;" vertex="1" parent="1">
                    <mxGeometry x="240" y="240" width="21.29" height="25.86" as="geometry"/>
                </mxCell>
                <mxCell id="16" value="No inbound" style="image;aspect=fixed;html=1;points=[];align=center;fontSize=12;image=img/lib/azure2/networking/Network_Security_Groups.svg;" vertex="1" parent="1">
                    <mxGeometry x="414" y="240" width="21.29" height="25.86" as="geometry"/>
                </mxCell>
                <mxCell id="18" style="edgeStyle=none;html=1;" edge="1" parent="1" source="17">
                    <mxGeometry relative="1" as="geometry">
                        <mxPoint x="20" y="285" as="targetPoint"/>
                    </mxGeometry>
                </mxCell>
                <mxCell id="17" value="" style="sketch=0;outlineConnect=0;strokeColor=#6c8ebf;fillColor=#dae8fc;dashed=0;verticalLabelPosition=bottom;verticalAlign=top;align=center;html=1;fontSize=12;fontStyle=0;aspect=fixed;shape=mxgraph.aws4.resourceIcon;resIcon=mxgraph.aws4.elastic_ip_address;rotation=-180;" vertex="1" parent="1">
                    <mxGeometry x="100" y="270" width="30" height="30" as="geometry"/>
                </mxCell>
                <mxCell id="19" value="Public Ip" style="text;html=1;align=center;verticalAlign=middle;resizable=0;points=[];autosize=1;strokeColor=none;fillColor=none;" vertex="1" parent="1">
                    <mxGeometry x="80" y="310" width="70" height="30" as="geometry"/>
                </mxCell>
                <mxCell id="20" value="" style="shape=flexArrow;endArrow=classic;startArrow=classic;html=1;fillColor=#d5e8d4;strokeColor=#82b366;exitX=1;exitY=0.75;exitDx=0;exitDy=0;" edge="1" parent="1" source="13" target="14">
                    <mxGeometry width="100" height="100" relative="1" as="geometry">
                        <mxPoint x="310" y="390" as="sourcePoint"/>
                        <mxPoint x="410" y="290" as="targetPoint"/>
                    </mxGeometry>
                </mxCell>
                <mxCell id="23" value="&lt;span style=&quot;color: rgb(0, 0, 0); text-wrap-mode: wrap;&quot;&gt;All commucation are allowed inside a vnet by default&lt;/span&gt;" style="text;html=1;align=center;verticalAlign=middle;resizable=0;points=[];autosize=1;strokeColor=none;fillColor=none;" vertex="1" parent="1">
                    <mxGeometry x="130" y="340" width="300" height="30" as="geometry"/>
                </mxCell>
                <mxCell id="24" value="" style="rounded=0;whiteSpace=wrap;html=1;fillColor=#f8cecc;strokeColor=#b85450;" vertex="1" parent="1">
                    <mxGeometry x="120" y="550" width="370" height="210" as="geometry"/>
                </mxCell>
                <mxCell id="25" value="" style="image;aspect=fixed;html=1;points=[];align=center;fontSize=12;image=img/lib/azure2/networking/Subnet.svg;" vertex="1" parent="1">
                    <mxGeometry x="460" y="540" width="48" height="28.74" as="geometry"/>
                </mxCell>
                <mxCell id="26" value="Subnet -2" style="text;html=1;align=center;verticalAlign=middle;resizable=0;points=[];autosize=1;strokeColor=none;fillColor=none;" vertex="1" parent="1">
                    <mxGeometry x="444" y="500" width="80" height="30" as="geometry"/>
                </mxCell>
                <mxCell id="27" value="" style="rounded=0;whiteSpace=wrap;html=1;fillColor=#fff2cc;strokeColor=#d6b656;" vertex="1" parent="1">
                    <mxGeometry x="160" y="610" width="120" height="60" as="geometry"/>
                </mxCell>
                <mxCell id="28" value="Recieving server -1" style="verticalLabelPosition=bottom;html=1;verticalAlign=top;align=center;strokeColor=none;fillColor=#00BEF2;shape=mxgraph.azure.virtual_machine;" vertex="1" parent="1">
                    <mxGeometry x="200" y="610" width="40" height="30" as="geometry"/>
                </mxCell>
                <mxCell id="29" value="" style="sketch=0;outlineConnect=0;strokeColor=#6c8ebf;fillColor=#dae8fc;dashed=0;verticalLabelPosition=bottom;verticalAlign=top;align=center;html=1;fontSize=12;fontStyle=0;aspect=fixed;shape=mxgraph.aws4.resourceIcon;resIcon=mxgraph.aws4.elastic_ip_address;rotation=-180;" vertex="1" parent="1">
                    <mxGeometry x="70" y="610" width="50" height="50" as="geometry"/>
                </mxCell>
                <mxCell id="30" value="public ip&lt;div&gt;&lt;br&gt;&lt;/div&gt;" style="text;html=1;align=center;verticalAlign=middle;resizable=0;points=[];autosize=1;strokeColor=none;fillColor=none;" vertex="1" parent="1">
                    <mxGeometry x="50" y="660" width="70" height="40" as="geometry"/>
                </mxCell>
                <mxCell id="31" value="" style="shape=flexArrow;endArrow=classic;startArrow=classic;html=1;fillColor=#d5e8d4;strokeColor=#82b366;exitX=0.5;exitY=0;exitDx=0;exitDy=0;entryX=0.5;entryY=1;entryDx=0;entryDy=0;" edge="1" parent="1" source="24" target="6">
                    <mxGeometry width="100" height="100" relative="1" as="geometry">
                        <mxPoint x="260" y="488" as="sourcePoint"/>
                        <mxPoint x="320" y="480" as="targetPoint"/>
                    </mxGeometry>
                </mxCell>
                <mxCell id="32" value="&lt;span style=&quot;color: rgb(0, 0, 0); text-wrap-mode: wrap;&quot;&gt;All commucation are allowed inside a vnet by default&lt;/span&gt;" style="text;html=1;align=center;verticalAlign=middle;resizable=0;points=[];autosize=1;strokeColor=none;fillColor=none;" vertex="1" parent="1">
                    <mxGeometry x="200" y="460" width="300" height="30" as="geometry"/>
                </mxCell>
                <mxCell id="34" value="" style="rounded=0;whiteSpace=wrap;html=1;fillColor=#f8cecc;strokeColor=#b85450;" vertex="1" parent="1">
                    <mxGeometry x="910" y="210" width="340" height="210" as="geometry"/>
                </mxCell>
                <mxCell id="36" value="" style="rounded=1;whiteSpace=wrap;html=1;fillColor=#fff2cc;strokeColor=#d6b656;" vertex="1" parent="1">
                    <mxGeometry x="940" y="263" width="180" height="127" as="geometry"/>
                </mxCell>
                <mxCell id="37" value="" style="image;aspect=fixed;html=1;points=[];align=center;fontSize=12;image=img/lib/azure2/networking/Virtual_Networks.svg;" vertex="1" parent="1">
                    <mxGeometry x="1340" y="160" width="57" height="34.03" as="geometry"/>
                </mxCell>
                <mxCell id="38" value="vnet" style="text;html=1;align=center;verticalAlign=middle;resizable=0;points=[];autosize=1;strokeColor=none;fillColor=none;" vertex="1" parent="1">
                    <mxGeometry x="1360" y="130" width="50" height="30" as="geometry"/>
                </mxCell>
                <mxCell id="39" value="" style="image;aspect=fixed;html=1;points=[];align=center;fontSize=12;image=img/lib/azure2/networking/Subnet.svg;" vertex="1" parent="1">
                    <mxGeometry x="1210" y="210" width="48" height="28.74" as="geometry"/>
                </mxCell>
                <mxCell id="40" value="server1" style="verticalLabelPosition=bottom;html=1;verticalAlign=top;align=center;strokeColor=none;fillColor=#00BEF2;shape=mxgraph.azure.virtual_machine;" vertex="1" parent="1">
                    <mxGeometry x="979.35" y="283" width="40" height="30" as="geometry"/>
                </mxCell>
                <mxCell id="42" value="subnet-1" style="text;html=1;align=center;verticalAlign=middle;resizable=0;points=[];autosize=1;strokeColor=none;fillColor=none;" vertex="1" parent="1">
                    <mxGeometry x="1210" y="180" width="70" height="30" as="geometry"/>
                </mxCell>
                <mxCell id="43" value="allow- ssh&lt;div&gt;deny- subnet -3 cidr&lt;/div&gt;" style="image;aspect=fixed;html=1;points=[];align=center;fontSize=12;image=img/lib/azure2/networking/Network_Security_Groups.svg;" vertex="1" parent="1">
                    <mxGeometry x="1100" y="257.14" width="21.29" height="25.86" as="geometry"/>
                </mxCell>
                <mxCell id="45" value="" style="sketch=0;outlineConnect=0;strokeColor=#6c8ebf;fillColor=#dae8fc;dashed=0;verticalLabelPosition=bottom;verticalAlign=top;align=center;html=1;fontSize=12;fontStyle=0;aspect=fixed;shape=mxgraph.aws4.resourceIcon;resIcon=mxgraph.aws4.elastic_ip_address;rotation=-180;" vertex="1" parent="1">
                    <mxGeometry x="880" y="280" width="30" height="30" as="geometry"/>
                </mxCell>
                <mxCell id="46" value="Public Ip" style="text;html=1;align=center;verticalAlign=middle;resizable=0;points=[];autosize=1;strokeColor=none;fillColor=none;" vertex="1" parent="1">
                    <mxGeometry x="860" y="320" width="70" height="30" as="geometry"/>
                </mxCell>
                <mxCell id="72" style="edgeStyle=none;html=1;exitX=1;exitY=0.5;exitDx=0;exitDy=0;entryX=1;entryY=0.5;entryDx=0;entryDy=0;" edge="1" parent="1" source="49" target="34">
                    <mxGeometry relative="1" as="geometry">
                        <Array as="points">
                            <mxPoint x="1610" y="500"/>
                        </Array>
                    </mxGeometry>
                </mxCell>
                <mxCell id="49" value="" style="rounded=0;whiteSpace=wrap;html=1;fillColor=#f8cecc;strokeColor=#b85450;" vertex="1" parent="1">
                    <mxGeometry x="900" y="560" width="370" height="210" as="geometry"/>
                </mxCell>
                <mxCell id="50" value="" style="image;aspect=fixed;html=1;points=[];align=center;fontSize=12;image=img/lib/azure2/networking/Subnet.svg;" vertex="1" parent="1">
                    <mxGeometry x="1240" y="550" width="48" height="28.74" as="geometry"/>
                </mxCell>
                <mxCell id="51" value="Subnet -2" style="text;html=1;align=center;verticalAlign=middle;resizable=0;points=[];autosize=1;strokeColor=none;fillColor=none;" vertex="1" parent="1">
                    <mxGeometry x="1224" y="510" width="80" height="30" as="geometry"/>
                </mxCell>
                <mxCell id="54" value="" style="sketch=0;outlineConnect=0;strokeColor=#6c8ebf;fillColor=#dae8fc;dashed=0;verticalLabelPosition=bottom;verticalAlign=top;align=center;html=1;fontSize=12;fontStyle=0;aspect=fixed;shape=mxgraph.aws4.resourceIcon;resIcon=mxgraph.aws4.elastic_ip_address;rotation=-180;" vertex="1" parent="1">
                    <mxGeometry x="850" y="620" width="50" height="50" as="geometry"/>
                </mxCell>
                <mxCell id="59" value="" style="rounded=0;whiteSpace=wrap;html=1;fillColor=#fff2cc;strokeColor=#d6b656;" vertex="1" parent="1">
                    <mxGeometry x="1000" y="633" width="120" height="60" as="geometry"/>
                </mxCell>
                <mxCell id="60" value="&lt;div&gt;server 2&lt;/div&gt;" style="verticalLabelPosition=bottom;html=1;verticalAlign=top;align=center;strokeColor=none;fillColor=#00BEF2;shape=mxgraph.azure.virtual_machine;" vertex="1" parent="1">
                    <mxGeometry x="1030" y="640" width="40" height="30" as="geometry"/>
                </mxCell>
                <mxCell id="61" value="ssh" style="image;aspect=fixed;html=1;points=[];align=center;fontSize=12;image=img/lib/azure2/networking/Network_Security_Groups.svg;" vertex="1" parent="1">
                    <mxGeometry x="1110" y="617" width="21.29" height="25.86" as="geometry"/>
                </mxCell>
                <mxCell id="62" value="" style="rounded=0;whiteSpace=wrap;html=1;fillColor=#fff2cc;strokeColor=#d6b656;" vertex="1" parent="1">
                    <mxGeometry x="1019.35" y="976" width="120" height="60" as="geometry"/>
                </mxCell>
                <mxCell id="63" value="&lt;div&gt;server 3&lt;/div&gt;" style="verticalLabelPosition=bottom;html=1;verticalAlign=top;align=center;strokeColor=none;fillColor=#00BEF2;shape=mxgraph.azure.virtual_machine;" vertex="1" parent="1">
                    <mxGeometry x="1049.35" y="983" width="40" height="30" as="geometry"/>
                </mxCell>
                <mxCell id="64" value="ssh" style="image;aspect=fixed;html=1;points=[];align=center;fontSize=12;image=img/lib/azure2/networking/Network_Security_Groups.svg;" vertex="1" parent="1">
                    <mxGeometry x="1129.35" y="960" width="21.29" height="25.86" as="geometry"/>
                </mxCell>
                <mxCell id="67" value="subnet 3" style="image;aspect=fixed;html=1;points=[];align=center;fontSize=12;image=img/lib/azure2/networking/Subnet.svg;" vertex="1" parent="1">
                    <mxGeometry x="1250" y="910" width="48" height="28.74" as="geometry"/>
                </mxCell>
                <mxCell id="71" value="" style="sketch=0;outlineConnect=0;strokeColor=#6c8ebf;fillColor=#dae8fc;dashed=0;verticalLabelPosition=bottom;verticalAlign=top;align=center;html=1;fontSize=12;fontStyle=0;aspect=fixed;shape=mxgraph.aws4.resourceIcon;resIcon=mxgraph.aws4.elastic_ip_address;rotation=-180;" vertex="1" parent="1">
                    <mxGeometry x="860" y="983" width="50" height="50" as="geometry"/>
                </mxCell>
                <mxCell id="74" value="Text" style="text;html=1;align=center;verticalAlign=middle;whiteSpace=wrap;rounded=0;" vertex="1" parent="1">
                    <mxGeometry x="2060" y="500" width="60" height="30" as="geometry"/>
                </mxCell>
                <mxCell id="76" value="" style="shape=image;verticalLabelPosition=bottom;labelBackgroundColor=default;verticalAlign=top;aspect=fixed;imageAspect=0;image=data:image/png,iVBORw0KGgoAAAANSUhEUgAABLAAAAD2CAYAAADGb36tAAAAAXNSR0IArs4c6QAAIABJREFUeF7snQN4nkkXhp+gQZMmtW3btq2tbdu2bdu2bds2kxSx/v853S+bKmrSJumZ69prd/O9mLkH78wz55wx8vb29kYIpIXz56Jx0+Yh8GR9pBJQAsFF4M7t23B2dkKmzFm+e6SHlzccXLzg7hkiQ0RwFeGPPsfEGLA1N4G5qVGA88ER96OrF5zcvQJ8j174awQsIhjD1twYxgGvJnh4Ae+dPOEVMp/IXytQGL2b/G0tTGARyP7yyc0Ljm7aX0JztRsbGSFaRBOYGgc8l17/joXOOhYGHJofV0aMYIxIgRznguXF+hAloASUgBJQAr+RgJEKWL+Rtr5KCYQyAj8TsChZ2Tt7wtVDxSv/qiyCiREiWxjDNADqCGl+dvXCZ12M+4c1WH+nbmVlZgxrc2MERMOieGvv7AX+W1PwEmA/iWxpjAgB7C8Urj65qngVvLUQMk9j3UaxDPhY6PjvWKi9LHjqg2Mbxzhrs0CoiMHzan2KElACSkAJKIHfRuCPCVicuGy58hEP7dxkQZEnSUQUSG4Fk59Mah0cHPDp0ycBY2xsjBgxYuD+/fuwtbWFkZERnjx5gly5cgUZnKenJ65cuYL48ePLszUpgb+BwM8ErM9u3vjk6hluEbi6uuDVy5ewtLRElKhR8fjhQ8SIGRO2kaMEqcxWEYxhY+H/ooGC4AcXT4RVo7bXr17COlIkWFlZB4lTYG6icbDd+/dwcLBDkqTJ8f7dWzg5OSFO3HgwMzMLzKO+fDeMgKiWJqDg6FfiYppt39FNl9UGTi4uLnjx7CmiRouOiFZWePzwAWLGig3byJEDXQ+8gZYitgHoL26eX6xAPf+gkOju7gYTE1OZdwQ1uTg7w8LSMqi3h+h9rq6uePr4IaJEjQZzcwu8evlc6pn/BCVFjGAEG3MTGPmjFLt7ecNOLByD8pbA3ePh4S7zRNZjaEtfxrl3MtYlS5FS/vvzp0+IlyAhIkSIEOjscpz7YgkXEKk+0I/XG5SAElACSkAJ/HECf0TAokvS6nMfENvGFAVSWMHD0xtrL35AkmgRUCjFjxdGK1aswLlz52ThYm5ujiZNmuDMmTNIlCgRLCwscPr0aTRv3hzPnj0DJwQUojhhCWhyd3fH2rVrkS1bNqRKlSqgt+l1SiBME/iRgMUFxZvPHgjMuuLh/buYMWmcuCPGjhMXVWrWRboMGQPMxtvbC0ZGQV8gBvhF/154++Z19O/eCZmzZUf9Ji1RtXRh9Og/FNVr1wvUuOH7vTGtTEGXwp+loLoO9u/eEfZ2dohkY4PCJcqgVNnygSiuN/jewIyFfj18SJ/uKFa6HPIVLByIPATtUo7J82dOwaqli7DtwHFMHjsSly+cw+jJM5EkWfIgPdTS1Fisf/xK/D5RNAmM9ZWHhwdmThqLE0cPw9TUFD0HDkP6jJmDlMfQeNONq5fRsUUjNGvXCTlz50PN8sXRe9BwVKlZJ8hty9/+EgRrxU8fP6JP57YydllaWSFd+kyoUrNWoIVpby8vGBkb49XLF5gwcghatOuE5ClTB6pqDNEZ+O+a5Utg6JhJSJM+Q6Ce8TsuvnP7JhpUK4/6TVtKGQf27IxmbTqgWZuOQXq9WNhZGPsrFLOPBcV18NOnjxgzdAAaNm+N5Cn8nqt5eXnC2NgE61ctx/17t9Gj35AglSkkb+LYMWfaRCycPR2Hz1/HgpnTsGfnVsxeslrE+qCkgArEQXm23qMElIASUAJK4E8T+CMC1gsHd6y+4IAOhaP7WFzZOXpi2qF3GFAu1g+ZLF26VMSqggUL+vxOqyyKWXfv3hUBq379+ti5c6dMqPPly4fo0aPD0dERvI6LCv4/d1HfvXuHiBEjgrvKkSNHlt/c3NxEwMqYMaNYYHl5eSFq1Khy/YcPH+RePpfP48KK9zFxcvrx40e5nr8xP9GiRZNr7e3txWKAu2iGd/NaWnvx75EiRZLfeB3/zffyPu6Ivn//Xv6beeAzNSmBkCDwIwGLsZk+uATOZefyxfNYOn82SleoLLv5J48eRvd+g5EiVRpp7y4uzogQwczHcoY74iYmJnBxcYWDvR2mTRiNTj36yq4//x7cif3bzc0VZmbmkodbN66hT5d2yJI9Jxo2a42KxfPLgrxm3YZBXpDTdSOSH64bQY0pVq1sUdSs0xAWlhYi6DRt3QHlK1fn6AMvLwpUXlIuD3d3GdPMLSxkPCH3TetWwcXJCf/UbwRT0wgyXrEuuMKnRYhvYYt/p9jFDQH+3afeTCPA7N8xiIvbEmUqIH/hosFdRZI3Zycnea5lxIj4srCbhJWL52Hn0bOYOGooLp0/i3HT5iJp8hRBej/3NCic+GWcwEU1F9eBSSMH9YWD3XvUa9ICdnbvETtuPKRKnVbKRGs/Tw9PKRO/J/xWkK3BuoLtkn2Df2eSf3t7I4KZmTBw/bdO+Z1iojUPzVv4XQguYfLbsvKd/M6xLZhGiIBrVy6hXdN6aNmhK3LlyS+Cb7+ho1CtVtAFX7p02pj/XEyklaKDsydohRXQZPfuLUoVzIkxk2fB2cUZZ08ew52bN9C9/xBkzppdHsP6IGMLiy/tX+rIxQVe3l/+9uDeHSyZNwu9Bg6Xsr99+xrRosWQcYOCCPsc+1pEq4jAvw6pvJ91xT7F8evN61eYMnYE2nXthVix4+D+vTtIlCiJ1Cn7q7OTM0xMTaTfGvoa88Zx0dPTSyxDQ6JuWVY3V1eZ7zCvbIO3b91AnUql0YiCUKo06NetA1q064yW7TsHFPt319G6jiLKz5Jskjh6yHgT2DRvxhSsX70cdRo2Rd1GzXws41in7Bvkz3qbO30yosWIicrVauLT50/SB2lly+Tu5ibzLDIw9Cv+P3mwLiOYRZDxMiSSof4N4xzHgpmTx2H+zKk4ceUO5k2fjF3bt2D+8nWIEy9+kLIQkHEuSA/Wm5SAElACSkAJhAICf0TAOvvIGS8+uKFSJtuvEAzc/hqD/RCwYsWKhbx588qEhRPrDRs2IGnSpDIBoYBVsWJFLFu2TJ6ZNWtWZMmSBbt375YJ6ufPn5E2bVoRqObMmSMWWhSh8uTJI0KSQcCisBQzZkzY2dkhXrx48gxaf9WrV0+Eqc2bN8PGxgZFihSR9/C+NWvWyGSTC4rXr1+jbNmyiBMnDlauXAkrKysRqCiopUiRQq7lBItloEjFfHDi9OjRI9SsWVPevWPHDlk8cELM5/BdIbGoDwXtT7Pwhwn8SMD6wADjgYzRRAFr15aNaNulB4xNTDFqcF+ULl8ZqdKkFRGFLhHsI2UqVBZ3sD07t8HN1QX3796RxcaBPTtRsEhxlCpXCekz/We5woXih48f4OX5nzujpWVEWFlbiwjwwcHeZ+FvWBDQvc334u/OrRvYuGaluCDTXbBGnQZwcvwc7AKWmcmXIMY/S1yIM65YYF1malUshUEjxyN1uvQi9Dk42KNy9VpguZ49eYJ0GTMhcZJk2L19iyyAuSgrXa4SaI0ydfxIGf9q1m2EIiVKYv/unbh5/aqMLclTpESp8pVhamqCvTu349b1azLOVK5RS9yJWG9022MdFC1ZGlmy5xLrjG8FLD7f0fGzj/jE8hubmMDWxlbqlhYTIrr8m/iOSDa2X7nHMD/zZkzGyxcvxPUoR+58KFm2QrALWMxC1IgmMPfDjZDxlgIbo6xjy8ZIljwFWrbvIgKi4dtw6vgRXLl4TkSJ+AkSoWTZ8vI9OHHkIGrVbyzXTR47HHUaNsOTRw/x5PFDPH/6RIRVWjLu3LpJ6i9ZilQoWqI0Th4/IlZoxkbGKFyiFDJmzvpVc2Nd2dvbffU39pWIEa2kHr/7zcpaXAJ9pxNHD+Hgvt1Sn7QAoYUi8xXcApapiRFi+NFfKPi+d/IKVBB9ClhlCufGgVOXZYygqLFwznS8efUSXfsMBC3JDu3bCyNjI2TPlQd5CxTGxXNncPLYEXh6eiBH7ry4ce0qtm9ah8LFS6FYqXJ49vghsufOKy5e+3fvEOHqxbNnyJO/IAoVKymi6sG9u8TSh5aBRUuVwazJ43H04H4UL1NOLJnWrliC8pWrSf/iWPThg4OMUQUKF0OmrNlx5uQxGQvZTyjoFytVVv7uexyj0PnBweGruuJYSJdeCtefPn746jfWORkYEtvRmRPHcGDvLrk2YeKkqFi1hog7wS1gUZxkMPGf2cBzLOQBCYFNHNPqVy8vfYfjWMfufWTTg+XhGPb82VOZhyVOmgzLF82DtXUkGbsozH3++BF5CxbG3ds3pb4476KAWKFKdcSNnwBjhw0UC7Snjx/B3NICTVq09RHumc8fjXO00osSOYqMd46fP4sFsiHJGGhr+50QtmDWVDx59EisBDNmyYqKVWti1pTxwSpgMQ/8FvGbpEkJKAEloASUQHgj8EcErMd2bth5/RNaFYjmw9PF3Rujdr/BoPI/t8C6evWqCEIUeWrUqIGNGzciTZo0IihRwGrUqBH27t0rkz5aal24cAEPHjxAhQoVZPFKwYv3TZ06FVWrVkX69Ollp5NikkHA4v+XLFkSL1++FGsuWnVRdKLwlTlzZvTp0wfdunUTcYuJk6C5c+eK6yGv2bJlC6JEiYISJUrg7du3skjbv3+/5Kl8+fJYsGABcubMidSpU8t9yZMnF4Fq3bp1oEBHwergwYNo3LixWIpRzKJrJC3GNCmB4CbwIwGLIotLIIO3U8DaunEdmrVqjzt3bmLlovno1LMvli6YI/2hUvXaOHfqBDasWYG5y9di8pjhYgnQoGkrWcwtmDVN3HRoWeM7DtWzp0+wcskC2Nu99yl6rrwFUL5SVbx9+wbzZ02VhYMh0bWtZNmKX4kju7ZtxtVLF0TY2bR2JXLmyS/uJ8FtgUWrnljWP4+xwvhXds6BX7T9U7Ekeg4YBivrSBjYoxNq1m0gIsnyhfPQvd8QWVCvWrIQGbJkQ6YsWXFo3x58/OCABs1aYfmi+fDy9EDthk0ltsqUcSPRrHUHsQaaPHYE6jRoIov5OVMnoXu/QbKgi5cgEVYtXYA3r1/Lu7igWzRnBsZNm4MZk8Z+J2BRfNq1bZO4zxkS67Buo6Yi2qxbtRwXzp7y+S1a9OioUbsBEiZO8t/4//+Fe6dWTURQoLhz88Y1LNuwDVvWrw1WCyy+0C/rEC4qGaPM2T1wpiE3r13F8AG9kChJUnG/SpIshVj5LZg5FdVr1xfBbsXi+ShcvCRso0SRv89YuELKXzRXRsxZuhbnzpzE5rWr0GvgMFhGtBKXopx580udmhibiHDZp2t7DB07Gc+fPMbOrRt9nmEAybqaNXWCLLYNqUSZ8ihUtIQIYzOnjP9qCCleqpws8H0nWvm5OLvA8fMn7Ny2GQ2atRRBMbgFLC6tY0f6eX+hK+e7QIoc3wpYLBetn6aNHyVWRd3btxTLUH7zF8+biUkzF4gonDZ9JqTLkAlmFuYiJHLMadelpwh/yxbMkf7z+NEDzJ02CR179MXH/wtArEO6eVEQoXUkxZWNa1ehbafuYoE1e9pEtO7QFRmzZEPT2tUwaPQEbN+4VmJMNWzeBrduXMe6lUsxbf5SrFu5TIROCqDXLl8UMblTz35fCVAUrBfNnflVXeXOV0AEkPNnz2D9qqVf/VawSDHZRDAkschcuwovX76ApbkFFs6djpYduiBbjtyoX618sFpgWUYwktNZfxbFIShWvizHvl3bRQwcMmYypowbIUIWXXW3b96A82dOiqWqwXqKwmXsuPFRoXI1nD97Cq9fvpRxf2i/HsicJTuy5syFvbu2w/HTJ7Tq2A2Fs6dDk1btULhYSYwZNlC+TeyvhsRNxT07tuL4kYM+f6OASEs1imgUm08e+3oMrNe4GeLFT/hVvXRu1RiZsuXEyaOHcP3qZcxZukaE0eC0wOIL6SpNl2lNSkAJKAEloATCG4E/ImDxFK6ZR96jSEprpItrDk8vYOf1jzAzMUalTDY/ZPwjF0IKQL4FrGbNmuHAgQMiFlEUWrVqFY4dO+azmE2QIAEqVaokwtGgQYNEvDIkg4BFiytaatHtcMmSJahbt67E1bp8+bJYezEOV6dOnXzuo4BFS6tChQohSZIk8n66HBYtWlTuZ3B5WogxnxTPVq9ejcKFCyNx4sRyH5/J4PPbtm0TMcza2hrbt2/3MYtnWYYNGybCnSYlENwEglPA6tyqiVgAxYufAG0790SGLFlRpWQhrN95QCx66DqRO31yLFi1EetXLROhiQuw169eYfyIQeg7ZNR3QaFpQcGFA+81JAbipTDMv7m5usHbV7QuUxNTsfrxnV69eIEVi+fJjv21y5dETJgyd1GYEbDKFMolFgYUhar9Uw+NW7bBji0bxFKke99B4iK1atlCtO3cA9GixxDhZPHcGRg4cjw2rVsNTw8PcbWheEELkBZtv4xfq5cugp3dO3ywt0fqtOlRuWZtH2w1yhVH3yEjkTlbDvlblzbNUe2fOtizY8sPXQhp3ePh6eFzP8ctusVRKGD90brFkBjrjPXnOyg2r+Ei9PjhA7h57YpYUkydt1SsjYLThZB5CAkBi8+llSFFjf17dmDSnEW4feO6WNVwgctvwPZN6/H0yWNkyZETi+fM8BGfiuTMiLnLvghYL58/Q+ee/aTcFBt69B8iYiPTorkzsGXdGrHwoaXOzm2bsG3/CZ/feQ37C79l4iP6b6IrFN//5TfXr/qG4TfDHyl83b11E6tXLMbdmzdw++YN5CtcBE1atgt2AYvvjPMbBCz2e7qd5c5XEHNnTBLBhyxosThp1kJsWb8aPJygaev2Yun24N5tLJwzA0PHTBZrqDlTJ/4rYD3E/l3bMXTsJMFVvWwxTJw1H9bWNti6cQ3u3r6F61cuYezUOYgaLRqG9u+JfkNGibjRqGZl9Bw4VGI3jZkyCzFixpLxq3al0ugzeCQunDsjluBV/6mLRw/uYdmCuWjdqRuix/ji8vZf3X5df4axkOIUg837Tqxz325wLDOF1i0b1uDB3du4dOGcuICWrVQVjf+pHKwClkUEI0QOZgGLQvmgXl0Qk1bpxUvLNyRm7Lho0bYjJo4eJtZzFJ8MadLoYUiYNDmq1qiFzazjly9Rq0Fj9OjQCiPGT5V64cEE0yeOQdsuPVG5RAGs3b5fROiJo4fKd4Jiv+/03TgHI7HS4njn1xhoeAbLsHfnNrFwvHHtMp4/eYIhYyZJnQe7gGVhDEs/3Di/Kpj+jxJQAkpACSiBMETgtwtYzm5e2HL1I+ydPMW82dzUCNxptTY3QZl0kWD1k5gYARWwaL1EIYhWVPxvugJWrlxZFm60wuKiafjw4Rg6dOhXJ1kZBCxaQRUrVkxc+igk0QKLk3paSNE9kJZbFKMM6VsBi++k+EUh6uLFi2jXrh0OHTokf6tSpYpYc1HAYjwvCmwUsGiRxXfRDSBu3LigpVmDBg1k0eHs7CzPCol4GGGonWpWQ4jAD10IXbzAHfLAJFpgbdu0Dq07dJPFGxPd+6qVKYol67Yibrz44pJUJFdGLFqzGWuWLUK1f+oiXcbMImCNGTYAA4aN/i7Y8tvXryWgLS2KDCl9xiziCsLnb92wFk5Ojj6/ZcqSXaxWDHFNuLD7p0JJfP70ERWr1cTmdavh7uGOGQuWB7uAxdPtooeACyEtsCju0dLAIPps37wezx4/FgsKWmbQ0q1Dt96yMGa8ouUL54rb4ca1K0VAqt+kBWZNmSBCUptO3WU8WTJ/NlxdnOU0xtRp04lrpSFVL1MU3QcMkXhHXPh2bNkI9Ro3x47/i0zfuhCS8RdXufM+91tHskGpchXlpLpD+3aLeGhIFOKKliyL2HHi+PyNi+qBPbuImxXduA/v34PxM+aLNUpwC1g8iZDfnZ+lj65ecAykCy2/H4yRRBaTxgzHpw8OyJWvAO7cuonWHbuJYEfrv/fv3yFrjlyYNn405i1fJ3VTJEcG6SMUsJw+fxYrELq1rV+9DH0GjfRx8aOocmjvLtRr0lxiYDGAUOFipSSukiG9efVK6pyxmgyJFosUIt+9eS2xg3wnWlbRlc6Q3r19g4Y1K4olHsUAWlXSpZducMFtgcVg3zGsfu5yGxwuhLSUojtf5ChRkCBREsyeOgFtOnWTAO3klytfQfk3XZjXrliK6nXqiyUWLTuHj5v6lYD15PEjHD2wF/2GjRZcdSqXkf+ePWUCMmXLgcRJkorbbcfujOUXDUP69RABi6IyBSzG4Ro/cjAGDh8rIgljLTWsWQkDRozFmZPHRVChOxtPeFyxaJ5YjEX/N2YT30frOo6xvlP6TFlRoHBRaWf7d2//6rfM2XMhT74CPn97+eI5+nVrL6I/RSu6rdFlu1zlamhSq0qwClhWZkaIRAHrJ50sKNaoHOcmjBwqYxznc3RbZplmL14lVnR08ywm1oRf3koBK17CxKhRu56PgMUxrnfnthgyZqKMTY8e3Bdxs13XnqhYLB+27DuO2HHjyvMYpsJ3IHtuBJw+eUzEZUPiNZVr1IaNbWRxQ7166b8xMBLHwPKVJL+GtH/PTvTs2Boly5QTofng3t3oP3yM1G1wC1jqQvjTIV5/UAJKQAkogTBO4LcKWI6uXlh82h5xbU1RJp2NCFgfXbzAuSQDIPvlrc/YVgkTJvwqiDstqWgtxZ1LwymE58+fx759+8RFL0eOHNi0aZMsLLjwo1jE2FgjRozAkCFDvhKwDKcQvnr1SgKnM2YWY1bRkoqJAtPNmzfRvXt3n8Ux/04Bi0IULbBoVWUQsJjX9evXI2XKlOIKGDt2bFSrVs1fAYuWYxS5KJpxckSrMQpehgV5GG9vmv1QRiA4g7gbYmBRvGCi8DFqcD+xHqKYceXSBbHuGDFhmuxwV6vFkwozyyJxQM8u4uaUI08+JEyU2IcSA4sz3oxv64IoUaIiRqzYsgB49uSRxHMyJFp6ccFgEHwpKJQvkkeEYC7EKQzQ/S4kBCzrf+O+/KyKgxrE3XcMLMOzfQtYdMGcOm4kbG2jSOwkuriQT8NmrWTBe+LIIQkuznFw3PBBqFClhownFDpoeUALrBmTxojLoRGMkDVnbuzZvhWXL55D2UpV8PThQxFXho2biomjhvwwBtbbN6+/cvOkYMO4MgyKzZPcKDYaEgWXOHHjf2UBu3rZImkrFHcc7O3x4P5dsY4JbgErIMGNg+LeNGXcKCRIlAh0KaKIUahoSWTLmQszJ4+XgPeRI0fF3l3bJOYQrd2a1K6KRi3awP79e7EAWbVlz1cCFmOPjR02SGIqpc2QESamprC0sJSTM5u26SBu87T4qlT9n6+aGy2zGK/KtwshrXgojlAwoRuc78TfKLAYEgWBBtUriBUj+yFFSQpxISFgRTQzhq0/QdzpzswNroAmCeJeIAe69R0k32a2HxtbWzRv01FiabVqWEvcYunWReG2eq262Lt7OyJaRhRxj4H3K1StKe6gtE5KkCgxNq5eIRZYPxKwuvYdJMHaq9asI3H1NqxZiVGTZgjTHh1aokyFKiLKNq9XE4NGjce+XTtw8fxpefaj+/dw5dJ5GQ/XLF/ir4Dl5OiIp08efYUictRoiBUrtrg00nrPd2Kd+xZP6I7dq1Mb8DkU0I4fPijx7kJCwAruIO78lrBfkVn7br1FEOahOd3aNhOWdCNneUpXrCTB2tOkyyAWindu3ECtBo3w9MkTiYPGQPXDB/QWYTBLtpw4cmAvYsaJK+J8waxp/BSw2KcoAvOQBkOikJbw3+D8Px4DE8o8zpC44TKoTzdkyJhZ+i/dWweOHBfsAlZAxrmA9im9TgkoASWgBJRAaCPw2wQsxrhacNIOyaOboVhqa5/TBwMKhAtQTha4CDMk7tRzIcbFKgUoxoniYpbB0RnIkwE0eQ2tsAz/z/spTn1r1fTldK4vpxPxpEBOkHi/4TQvxsPiM4oXL/6VNZThPj6X+eOims8wnC7I/+dig79xIsN3GK5lmZh/OfnG1dVHtOLfDacVMn6Qb1fHgPLS65RAQAj8SMCiS+9bnhAVkAf8ew0XT4zpQsso36dmckHNGFR379xCgoSJUaFqdZibW0gQXQagjhUnrrT740cO4djhA7KY4uQ+OBMXsVycpkiZRnbtaZ1SpWYd7NiyEfETJBQLFMZLYZDsjFm+DpwcmHzEsDKFXyFHGJaI1j2BtW5jrKsSZcuLxYAh0aKJohDdopgY34qBp58/eyaiIGO3RLKxEdeodauWIXnKNChRuqzEAmMQZxNjY5QsVxEpU6WRhT3diWjdQwGmRt0GYlFweP9u0LIuevRYqFLzS2B3ul0xMH/ipMkDg8bfa7mYWzRnJhwdPyFZ8lR4+eIpylWujpcvnuHiubNo3rYDjh06IC54FarWQLRo0f195o8usDA1RhRLv+PCUDDhKYQUHAOa6BJ05sRRGfuz5MglbYnuXayng/t2wdPdA/kKFUOW7DnkW8BTOik00jKKrmc16zWUuFaubq7ImTuf9AkuiOneRquoXPkLIV/+QnIt440xQDRjW9EqLzgT83/4wF7pnxTa2H8pctGqceOaFciTv5DELmNMtOKly0l8p6Amf/sLAAbUD4w1HK0xaVlEsY8n0FHIYGBuumGSKU9IZRB1N3c35CtYBLROo6h05eJZEXsYm80iYkQRcK9cOiex+74E1c8hwurDe3dQrHQ5KTKDhJepWEXiVR3Ys0P6GL/VFCxtbSNj946tYk3VuGVbbFm3WvobA+Yf2LML165cQMxYcVGmQiXhe+HsaZm/pM2QSYRgCu3Mm+8g7EHlbLiPc6MThw/iwL5doBUrBTfGu0ubPgNWLVuEHLnyIkbs2GJlmTt/QeT5d2wJ7HtNjI0Q2cLY3wDi9s5ecPEImKUv3fOOHNwnp3umTZ/RJ0u0eqJoyaD3Rw/tw/kzpxA9ZixUrVkX7u6uWDx3loh17Cef/x/TjUwp0u7buU3+TWs7uuTym8RNgCat24OWU+ymmSXIAAAgAElEQVSbdL/MlTd/YIvv5/XckFkyf47kOUXqtHJAQPEy5eUE09Mnjok4R2tWuoXTWozia1ASY18xBpYmJaAElIASUALhkcBvE7Duv3XFrdeuKJkmEuhqE1YSJ3106Tt16pQEYadFlCYlEF4I/EjAYtmCchJbeGESlHIEdMFA1xkHl8CfRBiUPOk9XxOgVQLdB/07meuL0OgJp0AGclfeAScQECGRT2N/+eDiBU9fQekD/ha98k8Q8C+AuyFPFIrfO3vSg1NTMBLgOEdXdrroalICSkAJKAElEB4J/DYBK6zCowUX3Qfpkkh3Re6ea1IC4YXAzwQsGp/QfYfHnWvymwCtriJbmiBCABYMpCniiJty/Z3tiks5uqxFMjP+6clovvMTFCus31mesPwuE/YXC/+FRJaRvSSwVlhhmU1Yzzutr6JYGAdok9JQt05uXoGy9g3rjEIy/xznrPxxZQ/J9+uzlYASUAJKQAn8DgIqYAWAMl0PNIh6AEDpJWGOwM8ELBaE4hVj1LkHwpUqzAH4xQxTs7KxMIGFKaNHBSwRJ0UsZ7XwCRiwYLjK3PRLvCWKJwFNbP90c6KLpabgIcD+Esn8y+lo2l+Ch2loeYqxkZG4rZkHwsKe7up0qw6oK2FoKWtozQf7lY25MQKwlxJai6D5UgJKQAkoASXgLwEVsPxFpBcogfBLwC8Bi6UWSxRXT3j8d6hZ+IURyJLRVSOKhd8n2v3skWKJ5aJuaoFEHqTLuaCOYmkSIMurb1/AwzgdnD0DFQ8rSJn8C25if2FsJLoPBiUZLBdVTgwKvZC9JzCWV9/mhPqwvYunuItqCjoBbqLQspH9TJMSUAJKQAkogfBMIMQErI3r1yN1mjSwsDAPz/y0bEogzBLgwuHF/48hjxMnLpIl/3lQbloM0c3DxdMbnl7eErPkb1xqcF3AxYGJkRHMTI3AUwd/ZaebDLloI1uu3Wjpo8Y+v96dWEe0BqFOYmlqJNY+v5LY5hkPy/Uvb/9BYcj+If3FxAhWtID7hcU1+4ubhzcc3RlgX/tLUOojuO7xGQuNjcTiKmIEo0AfzPNtXpw9vMQqVes2YLXke5wj/6AKwwF7m16lBJSAElACSiD0EAgxAevN69d4/vy5nPilSQkogdBJwMbGFgkTJfrq5MCf5ZThsHgyG90+6Fb7tyW6EXNBzuC4QTQi+SEyoqSbJrmqu9ovtiqKV+Bi+ks9/YrA+G1OWD/S/lVoDFAl/ddfvtRFcCWf/kLRV92bgwtroJ5jEPJpeRWcYyGr0/CNkchYf99nJmD14GucY+xFtboKGDa9SgkoASWgBMIHgRATsMIHHi2FElACSkAJKAEloASUgBJQAkpACSgBJaAElMCfJqAC1p+uAX2/ElACSkAJKAEloASUgBJQAkpACSgBJaAElICfBFTA0gaiBJSAElACSkAJKAEloASUgBJQAkpACSgBJRCqCaiAFaqrRzOnBJSAElACSkAJKAEloASUgBJQAkpACSgBJaAClrYBJaAElIASUAJKQAkoASWgBJSAElACSkAJKIFQTUAFrFBdPZo5JaAElIASUAJKQAkoASWgBJSAElACSkAJKAEVsLQNKAEloASUgBJQAkpACSgBJaAElIASUAJKQAmEagIqYIXq6tHMKQEloASUgBJQAkpACSgBJaAElIASUAJKQAmogKVtQAkoASWgBJSAElACSkAJKAEloASUgBJQAkogVBNQAStUV49mTgkoASWgBJSAElACSkAJKAEloASUgBJQAkpABSxtA0pACSgBJaAElIASUAJKQAkoASWgBJSAElACoZqAClihuno0c0pACSgBJaAElIASUAJKQAkoASWgBJSAElACYU7AcnV1gbc3YGxsjAgRIsDIyOi7WnR2dgavixw5SoBr+OPHjzAzM4OFhUWA7/nRhV5eXrhz5w6cnJyQOXNmyaem8EOA7crY2ETaHpO3tzfc3d1hamr6W+vaw8MD58+fh42NDVKnTv3DfhB+qGtJfBMIyBgYHMQ8PT1x6dIlGRPTpEnzW9t3cORfnxEyBP5rf0YwNY3wx9sFv91ubm6IHj26nwXmNXv37kWGDBmQIEECHTNDpnn8lqfyu+vq6gp+B/nttTA3B34wF/wtmfnmJc+fP8fVq1dRpEgRmDNfmsIdAcMYyPUH54K/Os/n2PT582dEjRr1l1g5OjrK/VZWVr/0nG9vdnBwwIkTJ1CoUKFgf3awZvQvexjXm4b1h4mJSYBKz7GTbY3t9lfXu9++kO3vzJkzyJgxI6JFixag/OhFSiCoBMKcgDVu3Fh4uLvDzNwc8eLGQ5GiRREzZsyvyr91yxYcPHgA4ydMDPAkdcTw4ciWPRtKlSqNly9fIoKpKaLHiBForjdu3MDkyZNhZ2eHGjVqoGrVqjLB0hQ+CIwfPw4xY8REhYoVETlyZHz69AmbNm5EgYIFkThx4t9SSAoLnExMmTIFlpaWqF+/PooWLYqAfsB+Syb1JSFG4KsxMF48FCny/Rj4s5dzwffixQvEihXLz8UVJ0anT5+WNsZ2VbduXZQsWVLbWIjVath5MMdAdzc3mQDHjhNH2l/cuHEDVAC2q1evXonwbm1tHaB7/Lto5owZuH37NiZOmvTT7z0n1lu3bsW0adOQM2dONG7cGOnTpw/w/MC/POjvv5fAoUMHcerUKXxwcJCNytZt2kib+pOJC8PLly9j+fLlOHnyJDp37owyZcogYsSIfzJb+u4QIGAYA41NTGShnjp1GmTLli1QgsCHDx/w7t07JEuWTBb9SxYvkjVLYERPzgUpmHINxHXGmjWrZfO8WbPmwVbqt2/fSptevXo1qlevjnr16sn8QdOfJ3DlymXs27sPuXLnQr58+X+aIYpcr1+/lk0eiq1TJk9GlqxZZd3wIyOQoJSMhiPLli2TdpI3b140b95cNoo0KYGQIhDmBKw8eXKjePHiSJQoEZYtXYrSZcqgW7fuX4lEDx8+xLNnT1GgQMEAczt39ixixIwpz23YoD6qVq2GSpUrB/h+Xnjz5k3Mnz8fKVKkkF0K7lrQqouTZU72OcHhx4UfmsB8pAKVCb04RAlkzZoF5mZm6NO3H8qVK4e3b96gS5fOaN+hA3LnzhOi7zY8nOLV4cOH5cPDRRgt/lKlSoXSpUuLwODi4oIrV64gXbp0ulv2W2rk976EY2CJ4iWQMGFCLFu2FGXKlkXXrt0CJJQ/fvwY48eNQ4+ePRA//s8nF2fPnsXOnTtl8ZU8eXI8evRIxsaKFStKG6P1w7Vr12Ss+9MLx99LX9+WI0d2FMhfQCyZVq9ehfQZMmDkyFE+Vql+EeLGztixY1CtWnVkz549WGBy8+nK1StYuXLVDyfjtG5Yt26dWGlRYKAVATeauBhLmTKl5IHf6nPnzsncQlPoJvDkyRO0aN5cFkk5c+XE40ePUb1GjT++489v7vbt22VRuGjRImTJkkU2uWrWrOkD1PA7N540hV0CHAPz5cuHzJky4+atm7h44QIaNGyIWrVqiVVqQNLs2bPx4P59jB4zRsSFW7duiggRmA1v+Z6PH4fOnTojUeLEuHv3Ljw9PJA2XbqAZMHfa7jhNXbsWJlfHjhwAFWqVAHnBlzTGEQsrnvYnn/XBq6/mf5LLuAcbOqUKVi5coXUz7LlK35qCcg18Yzp02WdEi9ePFy5fFkMNOLHjx8sAhaF1NGjR8vzHjx4IH2D7aVFixZIkiSJ1Ag3Tt+/fy/rkl+1WPxLqliL6Q+BMCdgFSpYEF27dUOFChUwdsxoMdVu27Yd9u/fj7z58uLa1WuIHTs2OMnhdbSQYQc/feo0kqdIjjp16spCbPu2bdKhPjt+RubMWXDv7l2kSZtWFv4zpk+TTla4SBG8fvUaderWlYkud0m2bN6MYcOH/xDriBEjpMNycsz3cveNu758FheBFLDYgWm2GVy7z9rCfy+BnDmyy24XBch58xfAzdX1KwFr8aJFOHnyBGxsbNG5SxdYWlhgzZo1SJkqFfbs3o0YMWKI9dbyZctAq4BGjRsjbdq08t9z5szG/fv3xQqQ7ftnafjw4WjXrp20LQoI/Ofo0aPInz+/TOK5s8d3crLhn1vN76WnbwsOAoUKFRTRvnz58hgzejSuX7+GSZMnS73PnTsPDvb2KFqsmNS/3f8nDGvXrhULGY6RUaJGwe5du5AzVy5UqVxFrvtRGjhwoFgQ0OUqTpw4YhJ+8OBB5M6dWyauHN8oCtAqixMiTX8PgVy5cqJ1q9Zo2KgRZs+ahY2bNmLo0GE4euQI8hfIj0MHD6FuvXp4/vyZjEMcI2mJXLBQYXDRtmL5MplwV6lSFaVKl8b+ffuwbfs2+S7Sajlnzlwyqb5w4QKWL1sKwAjtO7RH7NhxsH37NuzZs0fGudq164iI5p+AxW/u7t27JQ9DhgxBo0aNwAk3hf9KlSpJxXG+sGDBAgwaNOjvqcgwWtIjR45gQP9+GDFyJPLmzSfzKrYX1unmTZtw4MB+mV/Vr99AFvJcSNFSq1z58uJuM3v2LNSoXkPmc7S25yYjr+P3c9XKlTh+/LiMeX379RPrlqVLl0j7oHjPb/OPLBb4XI6vXKxxfjBy5EgMGzZM2nvbtm19FmzdunVD3759ESVKwMNbhNFqCtfZzp07l4yBFK3Y/mbNnCHtbOy48dIGFi5cIII4RfpGjRrDwcEeq1atwtkzZ0XYTJc+vWwkffz4AbVq1Ua69Olw5MhR9OnT50t7/eCAp0+e4MHDh6hdu7a082dPn2Lu3DkiduXKnVvGv1mzZkqbzZ49B8qWKydt08XFWTbg37x5g1WrVuLK5StImzYNGjdugihRo2LggP5Il44bn7dB9+tevXoj6k/cvdhH+D6KspwTUMxi/+CGfK5cuaSOt23bJkIt+4+m30fg+bNn6NGjOzJmyoxVK1dg6bLlsqHNRGF03ry5cHRyQv169bFixQqcOnUS2bJlR4uWLf5188uEHDly4NHDh5g7b65s4rAO2R5fv3ol1lTcJNi8ebO0D645fuaaynX4xYsXRayfPn06mjVr9q8oe0vWMmyXDEdBgZXfYfUW+X3tJDy/KcwJWPnz50ODBg1kkjt48CCkSJ5cJsED+vcXYYoTjOcvnuPI4cNYv2Ejxo0dKwN16dJlcOLEcdCFYfSYsZgxY7qIWPnzFxBBgeIBrRoi2djI5IgduWbNf2R3I0eOnOjdpw/69e0Ld3c3TJg4yc82wQkWF3hly5b9arKjAlbY70q5c+WUQZoDceIkScScukf37j4WWL179UKKlClkIm1ja4tRo0ajV88eeP/eDuUrlJePAd1Tq/x/QceJCic73bv3kGs8PD2RI3sOmaSMGTNW3GP9SkuXLhVh1TCRMFxLIYNmvPxQqIAV9tvctyUokD8/GjRsIOMSx8CUKVLKJLdr1y7yt7jx4oJu1BQRaIXasUN7mXhw4mwZMSLWrV2L8uUroETJksiaNaufgCh+cTH37eRUBazw164CWqKcOXOIAFCqdCmMGzcOxkZGaNW6DQYNHAAra2uULFFC2tmSxYtRokRJGJsYizUfRa4Xz5/LootCaLnyFWSiTKtlfivf273H2TNnMGjwEDg5OaJnjx7y3Y4ePRry5ssvC8JtW7egbNlyuP/gPu7fu4/hI0ZIe/bLAst3uXr37i3WAwbLK8NvKmAFtPb//HV0VWnbpg3evnsrIn2ZMmVFNJo/b56I6lWrVcOjRw9x+dIlLF6yFGvXrMHLVy/Ru3cfsU6uV7eOWAyuWr0Khw8dQu48eWTRxs3JS5cuSvtycnZCu3btZXMqUqRIEgOQ31sKoJwz+pVoZThq1CiMGTPmu8u6du2Kfv36qYD155vRL+VABKzWbdCwYUN5zq1bt9CubRtxY960aZMs1mmhv3LlSvzzzz8wMzPH2jWrUa9efXh5eyN5smQYN36cbDC1adNWrEMnTpyAI0ePiaXMuvXrZG55+9Yt2Ns7YOSoUTh96hQeP3kCJ0dHrF+/DiNHjZbxlEIF+0ChwoVw/NhxEaUGcAOqU0cRbPPmy4ddu3aJO1f//gNQqGAB+W+Ozbt27USyZMkxZepUP3lwg5UCFsf7b5MKWL/UlIJ8M70wuFYYPHgIWjRvhoqVKqF9+w64e+cOmjZtItZ8NNpIkiSpWAju2LFd1sdce4weNUq+uTly5hSPozx58iJO3LgihLGNUrDs0KG9CFd58+TF1m1b5btJAxC/Eq3C6KZPAcvW1varS9knuGlUrVo1FbCCXOt6o28CYU7AouluksSJJdihbeTIsptKP/JePXti7NhxMljPmjULmzZuwJw5c2UC0rFjJ4lRdP78OfTt0wdz5s4T15vHjx5h2PARYhXToEF9sSZg582eLSs6deqMevXrY9HChVi3bi0GDhqMsWPGyK5cpkyZVMD6S/sRBSya4VIspaDZrHlz7NyxQ/6WNWs2mUA/fPgAF85fwJs3r7Fi5Sr06d0LxUuUQPVq1TFy1Eh4enjKhIQT63379qFN27YyqaYQlSJFSpmccGLeu09fFbD+0nbmV7ENYyB3U7mT37BhI5w6eVIsrTZs3Ci7oyNHDBcLFu4Id+zYAdz5L1y4iEy0e/bojomTJiNp0qT+0lUBy19Ef90F2bNnQ/x48UTYtLKyFqGUO6wU4SnGFypcGIzTRreFWbNmw9nZCT179pRdeu7iduncGa1atUb+AgXQuVMnGUvbtmsHChNt2rQWy8A9e/fIMydPniKWWbSuadqksTy7QYOGEmOyebNmaN++vcRqUwHr72qGtJzauXOHbBRx/tapcxdMnz4NmTJmQqvWraXtde/WDU2bNhWXlp8JWDeuX8fyFSvh7OSEkiVLiNU+LbeYaOFQpUpl5MmTB/HixxeBixbT/sUXUgEr/LfFbwUsumTRGmbosOFo1rSJWJhmz5FDrEtjxowlLq6LFi4Q8bNkqVJiKcNN96dPn2DR4iUyh+RmlEHAevb8GUaMGCneHEMGD8K48RNkfDywf7/EENyzZzfatW8vG/kcd7nhmTRZMkycMEEELM5H69WriyFDhkr7Zby4USNHYOy4cahZowbq1K2H7t27Y8TwYTh85Ah2796jAlYYa7a9e/UUy9BKlSpj8+ZNMDExlfrlmvXo0SMyrhlEJLajQQMHyrqDFvNtWrcWAYtjFde3K1etFqvmvn374Mnjx+jarTt6dO+GHj17yeZln969YRvZFgMH+m2hrAJWGGtEYTy7YU7AKlAgP5o1bSYfAZqJc3eMnZUC1oYNGxErdmwfAWv2nLmyC9GzV28RBy5dvCgddNbsOWIW/sHhAwYPHgwLS8vvBCyKXvUbNBC3nOrVqooLzefPjpg6bZqYnPuVvrXAoh85ra/o2+7bhZAfJI2FELZ6EAWsDh06oOY/tTBt6lSsXbtG6pBupfwYLFywQBZjJ0+cxLZtW7Fq1Wr06dNbzMgprtKijycmdeveA9u2bpUPD60XmjVrKjscBnGU7jKcBPmVvrXAosk42yYXfgYLLMYn4t/pm64pfBDgGNi8WXOxoDKMgfPnz8O6teuwY+dOqX9OTGnSPWr0GJng0qqFrsz/CViTkDRpMn+BfCtgcbOA5t8cywwuhHQppDs2Y3JpCv8E6EJYp3Yd1PznH4mRxkkyd1fZzuhWTWGLO7xsE9OmTxerF/72Jdh2axGwWrZqjQIFCsguL62haM3A+JDt27VFpcpVsGXzJnn29BkzfdzDGjVqiJIlS4llAsdaxkGiexYXZ0EVsJ49eyYiML/LBhdCtnGOoxrbLXS2ZYPLoOEk3ubNmqJL124i4jMmVpMmTcHYQN27dRWx6f6DB7JZyc1He3s7tGzRwscC69XLlyIg0FWwbJnSYqFCsYGJbaNundqySUpxgONqooSJJNaQX+lHAhYFNVpbGyyw2L7Y3mkhHVxBlENnbYXPXPkWsOjVwTme3Xs79OnbV9oRrfQNFvT8RqdJk/aLReDiRXD48EHa34L586WdLlm69DsB6+Onj2IxyNAmAwb0F2srboTyOeUrVBCrf1phM+4qx1Z6lTAYvEHA6tCxI+rUri2urLSy4WbW0KFDMHbMWNSoUV2svpq3aIHJkyZhy5bN2H/gYKAFLIoiDH/h2wKLYz6FEI3xG7LtnutStrOEiRIhdqxYIm7SumnQoME4dOgQTp85jY0bN/msVVlXAwcMEMtQivEGAevN2zfiFbJmzVr5jlNEvXf3Hnr06CEW/WPGjkWGDBlFwDI3N8OQocP8LNiPBCxuIHCz1LcFlqGd6AEXIdtOwvvTw5yAxRhYtCag258hGQSsjZs2iym5xOXYuAFr1q7DqFEjxZe8adNm2LFjBz59/iQfD7oQfvzwQRZ23OH9YoH1ZXJcuFBBpE2bDh07dZL4Qty5oCkwfcUZD8u/CQdPoOExpQwIy2vZqRkEmQs8muJy8mJvby+LQI0fE7a6GCcuHdq3lx0sTqD/qVlD6nb6jBni4sL4Qs2bt8CSJUvw8uULHwGrcZOmshMmApaFhcQwosDFHeThwxk7rTnixouHOnXq4N69+yhSpDASJfJ7osz4MoytZnADu379usTX4EeK5sWMwUZrRLrrMH6HpvBBgDGwujMGlq84aWx7nMjSyiplqpRywAVdoBnDoFevnhg0eLCMaffu3ROxn0E2GTPDP5GUkxvGFDS4qVIA484tXQkYC4MiBBf+bIOMX6Qp/BOQGFitW4sob0gGAWvBwkUSb40urAzWLtcYQeK00N0vceIkYgHIb2HVatVBCxgGvGZcDsZaoSUCXQ1v3b4lrjS169QRC5tUqVLj0MGDcrpwkyZNcO36dVmUMR7gmtVrAixgMS4R3W252GPiZJ9x3hh8ef369bKJMGfOHAlT4F/fCP81HTpLuHfvHhw/dkwsno8dPybhIugCRSGTVlIdOnbCzRs3cOzYUSxZugzHjx+TYMdcsDNW5J3bt30ErDevX4NtliIEBVLOCSmAcdOHba9J48YSEoDfT4oNdNH2L1g153Y8vZUuV0y0HuScld92ziM5fjJ+JYUNupdpPJjQ2c78yhWtoLNmySKxTenaR6unvv36y/ewVauWeP/uPVq1bgUHewfE/7/rHtsA3fnu3bsrLs/jx08Q4YDrFIYkefnihcwNDRZY3wpYg4cMRYP69eTAloQJEorrGE/eLFiwEHr27IFsWbNJiIqdO3ZKXvoPGCCWYBRI6aq9cMF8EV779OmLAvnzidU/56mTJ0+SPuOfgEWxlUG6ueHPxP7CdsyTF7mBS48YtmfOexlHUGO8hWybptv9xg3rMXXadBHG6YLaqmUL2QDPmCmTeBpVrFhJLP1sbG0QK1ZsdOzQAdWqV0OxYsUxbNhQlC1TFhkzZUTjRo1Qpizngikl5A7HP1o6d2jf7hsByxxDhg71V8Bi3ngyOo1LuNkwfvx42YxiW6GQT3dsxouePHmyzC01KYGgEghzAhZdY0qXKSvxXAyJR2jz+FhaTXHX9OCBAzh//jy6de8uO2+0FOBuWuw4sSVwLEUpigfOTs7iD0yXmzmzZ8tpSlzwbd26RQLRlixVEsWLl8CxY8ckUOz4CRN8guT5BZwfKnZc35Za3IXmLp8h2Cg7t3beoDbbP3ffkCGDJVZanrx5JRNX/3/aH61UGAuBMa+mT5sKTy8vcYuhmwN3ujhhKViwoIhNjAXD9saJCBd9F86fF0sGil0rV6yUQIrcwaKlQtSo0fz9WBisYQwX8mQ4Bl/kJIYTC06oKgfyNM0/R1ffHBACI0eMQJmyZeTwCUPieMOj5ffs3iPCaubMmaVdcTFFV9XKVaqIWM6J6KaNG3Hu/DmUL1f+p0HcDc+l+M4TY9hmDYki1sKFC+VZ/DvHTJ7opunvIMAxsGiRouICaEh0ZVizejWaNmsmixe2G8aY5GaOiYmxuM7wxGAufBhQnbGHeBpgwUKFZAF1+fIlmJmbo1TJUsiXP/+/VqSrRKSKYBoBbdq2QcSIVli/bp2IW5GsI6FCxQoiYjCw+9MnT2VB59/mEtssrQMMogHzw/gwFD+4U0xhi4cjMLitptBJgBtGtF759OmjxFrjIr5UqVLy7aRF9O1btxEpkrUEbWdwa1rX0eKeIgGDXz988BA1atbEmdOn8eHjBx+XQJ4ovHjJYrx4/gJx4saRTaaLFy9I+/zw8aMIV3Xr1vM3rqThtGnfAY+5cOM8lAJakSJFxNqBoqlaIITONuZfrmjN4ubmKrElufFIUYBzPiZacNISn/M/G5tIqN+goWyicwOd4w3FAbpvyXd0wQKxiMmSJbNsOvbt208OA3BxdpYNKor6G9avl285g3AfOXwEyZInk78XK1ZMXAgZcoLB4eUEVSMjscZhnCHGz9qwYQPevXsrJw7TKoxiWv9+/VCseHEULlxYXBE5xnJz3q/0ozZNUW7q1Kly+joNB/jeXr16+ds//GOrv/tPYObMGTA1MUWTpk3lW8Z2tW/vXllj/lOrlqyB6QnEeqtTt45Y23ONfPPGTTRu0kTaEt2taZ3HTRy2A4pg6dNnEFGdYynHTMYGpPcGx1V+hxlf0L/EdsBNesO3mO1kxowZIl7xvznm0YuFltqalMCvEAhzAlZQCstOzAk1J67+TXANz2dnZmfjqXDcvaAY0Kt3n186PZB5oOkkOzAH/IDmJShl1nv+DAG2GYO7aGBzwHs9PT0QIcIXN8CgJL6brmN0L+TpHwzGqOnvIcCJDNuRb8Hp29KzjXB8+xUzf546s3jxYpk0ly5d+u8BrCUNFAGD+7zv9sj2x00e3xs8bI+ciH9rjcLrOBb6Plqe31E+L7iO4ubzKKrRIoIuXnSL0RS6CXCcY5thO/hRm2Hb8P33gH6XDW2T7c3Qvngv27HBPT8oZPhcziUZ2J3CAWNcaviIoJAMG/f8qB1xLGPyPRb+aHzzq4S8nu3a99jn1/qG/aj+gzAAACAASURBVIT3/Mq33q/88DAXWtxwDG3VqtV3gbvDRm2Fz1x+++1lWzCMY9+WOKDjY1BJ8fnLly+Xw69atmypIU2CClLv+4rAXyFgBbXOnz59Kqc70CKGvr8BCXrs37s4iHBCHlSBwr/n6+9KwDCh4YQ7uBZ5SlUJ+CagbUzbQ3giwAk2F2FqEROeajX0leVbC8DQl0PNkRIIHAEKyUz+xQYO3FP16vBGgOIZv7O/shEQ3phoeX6NgApY/vDj4KwD8681Mr1bCSgBJaAElIASUAJKQAkoASWgBJSAElACv0JABaxfoaf3KgEloASUgBJQAkpACSgBJaAElIASUAJKQAmEOAEVsEIcsb5ACSgBJaAElIASUAJKQAkoASWgBJSAElACSuBXCKiA9Sv09F4loASUgBJQAkpACSgBJaAElIASUAJKQAkogRAnoAJWiCPWFygBJaAElIASUAJKQAkoASWgBJSAElACSkAJ/AoBFbB+hZ7eqwSUgBJQAkpACSgBJaAElIASUAJKQAkoASUQ4gRUwApxxPoCJaAElIASUAJKQAkoASWgBJSAElACSkAJKIFfIRBsApaXp+ev5EPvVQJKQAkoASWgBJSAElACSkAJKAEloASUgBIIxwSMTUyCXLpgE7AcP38Kcib0RiWgBJSAElACSkAJKAEloASUgBJQAkpACSiB8E3AyjpSkAsYbAJWkHOgNyoBJaAElIASUAJKQAkoASWgBJSAElACSkAJKAE/CKiApc1DCSgBJaAElIASUAJKQAkoASWgBJSAElACSiBUE1ABK1RXj2ZOCSgBJaAElIASUAJKQAkoASWgBJSAElACSkAFLG0DSkAJKAEloASUgBJQAkpACSgBJaAElIASUAKhmkCICVje3t54+PAhrl+/Dk8PjwBBsIwYEYUKFYKFhUWArteLlIASUAJKQAkoASWgBJSAElACSkAJKAEloATCP4EQE7BevnyJcWPHInny5IgYMWKASL58+QJPnz7D9BkzAnS9XqQE/jgBb2+4vboJl8fnECl7LRiZmv3xLGkGlIASUAJKQAkoASWgBJSAEgjfBLy8PeHp9cVQxNjIBCbGpuG7wFq6UEXg3WcP7Lv5GSbGRvD08kbR1JEQM5JJiOcxxASsBw/uY+OGjejStSuMjIwCVBAvLy/kzpUTZ86eC9D1epES+NMEPD++wutVTeB0byeiFh2BKKV6wsjI+E9nS9+vBJSAElACSkAJKAEloASUQDgk4Oz+CQ/truLWm8N4/ekxvOGNmNYJkDpGISSJlhFWZrbhsNRapNBA4N0nD9g5e0pWNl76gFuvXJEpviWuv3RBgsgRUCtHZPktsqUJYkYKGUE15ASs+/excdNGdO3aLVCsc2TPhrPnzgfqHr1YCfwpAg6HpuH97h7w9nSGsVk0xG26ExZJcvyp7Oh7lYASUAJKQAkoASWgBJSAEginBD652mPrjQk4+nA57J0fflVKG/P4yJOoJiqn644oEWOHUwJarD9J4PDtz1h76QNiRYoAVw8vGBsZIaqVCRycPOHm6Q1rc2O8+OCOCultUCpdpBDJapgTsF69eoVbt24iQYKESJYsmQ+UN2/e4ObNm0idOjVixYolf3dzc8OtW7cEbPoMGUIEoD707yXgbvcITydlh5fLex8IVmmqIVadxTA2t/p7wWjJQ5TAx48fce3qVUSJGhVp0qSRd3l6euL27Vt48/oNMmTMiGjRooVoHvThfyeBp0+fwsHB/qvCx4gRE7Fjf5kkM3TA3bt3YGNjK23TxMREvsu0wmabjBMnzt8JTkutBJSAElACSiCYCCy/MBA7b4+Gh5frD59oYmyGosnaoVGOMTAx+rE717t37/D582ckTpzY5xmrVq5EtuzZ8ebNazx79hz//PNPMOVYHxOeCFComnPMDsVTWyNlLPPvivbEzh3brn5E/VxREMdWLbAEUPNmTUW8Onv2DJo1b45KlSrj+PHjmDplClKkSI4XL16iY6dOSJ8+PcaOGQO6Mjo5OSNlyhTo07efTKg1KYFfJeDt7oxXixvC8c56WKf/B7Y5m+Htlj7wdHqIGBWnwTpLNcAfV0JvALdfu2LhCTtceemCCMZG6F0yJrInssSS0/bYc/MTHFy8kCmOBcZUjYNpR94jQxwLFErxRRx7ZueO1mtfYGvLRL9aHL0/jBCgUNWsaRMkSJBAhIFChQqjbbt2WLxoES5dvoTItrYSR7B3795IniJFGCmVZjOsEFi0aCFOnzqFJ0+ewMzMTASpUqVKo0DBgpg3dy6OHz+GFClTwsHBAQ0bNESatGlRuVJFpEiRApwsp0qVGv0HDICtrbo2hJU6D835vHfvHh48eIDixYrBWOd2obmqwmXeOA5yk7xYsWK6tgiXNRw6C0W3wb67csLL2+W7DFqbRUeRZB1w5OF8fHJ9hYElDiNVjFzfXce5ZOfOnXDv7l0sWboM0aNHl2sG9O+H8uUr4P6D+7h18xYGDxkSOiForv4oASc3LxGwSqWNBLvPHnDz4Ir2S2LUqMTRzbDp8hcBK5pVyOguYc4Cy9nZGZaWllixfDnOnDmNESNHYeyY0SharBjy5s2HpUuWwNPLE4ULF8GggQMwecpUOQWxatUq0kmTJEnyRytdXx4OCHh74dP51Xi7qQW83D7DNm9bRK84GY+Hp4fHp1uImLwsYtaaD1Mbv013nd280Hv7a8SziYCqGW3w3tED8SJHwAsHd7TZ8BLTqsSBjaUJntm7oUSaSOi09RUKJIyIaplsBOLdN67INv0hPg5OHQ6gahECQoBxAu/fvy+CwIXz59G+fTscO34CL148R/ToMcDTXydOGI9cuXLLmKhJCQQ3AU58Fy1cCNvIkVG9enWxdF62dKm0wfYdOoo45eHhIW3xw4cP6N+vH0aNHg1jY2N06dwJtWrXkQWfJiXwKwTc3d3Ru1cvnD59CvPmzUeq1Pod/BWeem/gCHCMmzBhPDZu2IBZs2cjU6bMgXuAXq0Egkhg+vEOOPpoqtxtbGThI2RZm8VGvawTkSluEUw91hA33uxGzniN0aXwgu/edPfuXfTs0R2JEydB4cKFUbFSJbnmRwKWo6Mjrl27hg8fHJAgfgLZHH38+DHMzc1lM/XZs6f/GoqkxPPnz+Hh4Y5Eif6z6gpiMfW2UEzAt4B19J4j+P+GRAGrUkYbFbC+rT+6CtJVZu3atahcuTLSpEmLadOmok2btogXLx4OHTqIU6dOIWnSZLh86RKGjxghj2jUqCHq1auP4sWLh+ImoVkLCwTc3z/Gm7Ut4fxgDwBv2ORohuiVpuDhoBjw9nCEkaklopebBNt8LfwsDjt8l62vEN8qAnqXjC4nODCdfOCEphteYH29BEgT+z/TTBWwwkLr+H153Lx5M1auWI5Vq9f4vPTTp08YPWoUypUvjzx58vy+zOib/hoC3wpYdnZ2spCrWrUasmbN+hUHWl0ZBCxra2u0atkStevURtGiKmD9NQ0mhAp66+ZNTJo0EUmSJIWFpQU6duwkbzp69Ai8PL1w+/ZtWWBVq15dXK5jxoyJpMmSgZugtNrPnTs32CY1KYGgEHj65AkmT56MqFGjwsnZCcOGDZfHHDlyGMZGxrh77x68vb1Qs+Y/ePjwoQj6GTJkAIXXs2fPImnSpOpSHRTweg/abEwLO6ebiBUpLSqk6YZtN6bhvfMdlE/dC1UydMWKC0Ox794keHg5IWKEBFhQ88l31Ggx7eTkhEyZM2P/vr3o2as3rKysvhOwevbqhdmzZ8HZyVnEqkuXLqFK1aqws3uP27duo3uPHhg+fDiePH6EWbPnYPq0aUiTNg2KFdO1dnhuqipg/aB2/QvivnXrFnGX4SR66LDhsLaywvz589CufQeJfXXyxAkcOHgANpFs4Orqgm7de8hbOnXsgGLFi6NChYrhuU1p2UKagLcXPpxeiLeb2gL/+p5HylIP0cuOxaORCeBtOMrWPC4S9bkOE8svJzH8LN146YKGK5/BzBiYVDkeciS2lEuH7HyDxecd0KtwdDTPH/VLG976Csdvf0Yc6y/+xI5uXjj6ygVuI9KGdKn1+aGMwLlz5zB82FBMmDjJx6qUE+SxY8fg08eP6NW7j0xGNCmB4CbwrYDFuFeTJ01C8xYtvopLyfdSwKpTuxZy58kjG0qxYsfG5MlTxIpakxL4FQLLly2DwwcHVKtWHb169sTYsWMRI2ZMmeu9ffsWtevUxby5c1C6TBmJyfbi+XN0694dN25cx7Kly2ThFSVKlF/Jgt77FxPYv3+/eIE0bdoMjRs1wuw5cxA/fnz07tUT165dR+MmTbBl8yakTJUKuXPnwdEjR0AxwN7eHtOmTpXfkydP/hcT1KIHlUDTdQnh6PoUyaMVQof8S2BqHAHrr0xCrSy9cOrJNsw/08Dn0SbGkbG89tdxK7npNHDgAHTu1BlW1tYYM3q0fL8ZQ/pbCyyKVStXrEDffv1gY2OD3bt24cSJE+jStSvatGmNUaNGYeCAAXj37j3GjBmDOXNmo3efvogRI0ZQi6f3hQECKmD9oJL8E7AMtxw5cgR9+/TGihUrMXPmDLRt2w7x4sfHgf37ceXqFcSNGxeXLl4UF0OmenXrok3btsibN28YaBqaxdBKwOPDS7ycVwGur/87KTNiyrKIUrAnni8oCnh9OVaUySZLS8SoMRlGpt8HuPNdPidXLyw764DVVz+iW6FoKJ0mEjy9vXHqoRNGHnqHeNammF49LrrveI3oZsYolOzfGFj27mi29SUch3wJ5K3p7yCwa9dOHDhwAPXr1ZeA7UxPHj/GrNmzECN6DJmIqGXB39EW/kQpvxWw3r9/j3HjxoqQkD179q+yRAGLMdtoBZM0SVLkyp0bpqYhE9DzT7DQd/4ZAhQBRgwfjly5ckmctcmTJqJW7S+Wfb169kCOHDmlze3YsV3mhC1btcaI4cMwfcZM7NmzB+/evkXDRo0QIUKEP1MAfWuYJkC36XFjx4oAWrRYUYwfNw7Fi5dAjZo10ad3L7EKbNGyJQ4dOiQi6ugxYyQmLxf2jNlGTxFaDEaMGDFMc9DM/xkCow/Uw8WXy+Xl2eLVQPNc0xDJPCquvDyMGSfrSewrQ0oTvRIGltr0VUZPnz6NCePHS9xouvZfvXoV9erXFyvqgQP6fxUDq1Tp0tJeO3XqLO2V927ZvBnDhg9Hv759EDNmLEQwiwBXF1cxLGEIn3bt2usG6p9pGr/trSpg/QC1XwIWJy38cFDZPXr0KAYPGohNm7dg4sQJyJYtO0qUKCEfi9hx4sj/9+rVE+PHjcdnR0e0bdMaq9es1dO5flvzDp8verdlAByODfUpnJGxGawzN4Z1xqp4u6kTPBxu+vxmbG6LWLVWwSpd6R/C8PICPLy9YWZiBE8vb0w9bgd7R090KRQdtpbGcg8ttDJPe4inPVNg5OF3GgMrfDarAJfqxYsXEregV6/e4g7D0928vDzlEAseblG5ShWZkPCwCl2cBRirXhgIAj+KgcWYWI8ePRShgK78FLUY5J3XGlwINXB7ICDrpX4SuH7tmritpE2XVqz57ty+jZQpU8mBFsOGDpEYqMVLlMCpkyexYsVysVTt36+vWMLcuHkTxYoVRc6c3wc2VuxKICAEaOHXrl1bpEqVSg5OefL0qbRDfpdHjRwh64/qNWrgIjfRhw8TN/8pUyYjfvwE4k6YMWMGlC5dJiCv0muUwHcEzj/bi3FHysPb240hs5Ejfg0UTNoIm6+Pwf33R+CNL/GIjIwioEPetciT+Et8KyZ+k+fOmQMXFxcZI42NjXDhwgVcvnRZYlVyXe07iHut2rUwZ/Zs8XJKlCgRVq1aCXs7O4l3ydiXq1atwsCBA+UQDRqV1K1XD7Vr19GNqnDeblXACqSAxeO5e/boIYszxjZo3aYN8uXLj8uXL2PM6FFwdXVF6jRp0L59e1GF2el27NgBU1MTmdho3I1w3qNCuHiuj87h2dwi8Hb//J+AZWKJKEUGIXL+Fng+k5ZZx/7LhZERrFJVRMwac2ASKeZ3ubNz8sSMI+9hYWKEyJYm2HbzI2pniwITIyPsv/0RORJExJknzrj51hV72yRBj52vVcAK4ToO7Y/fv38funfrJhamnLhwbGvXvj3WrlmDhw8fiWjAVKFiBTRr1lxPRgrtFRoG8/etgMUi2NvbYcmSJdi3d6+Iqvw+czGXKHFiFbDCYB2H9ixzbufo5IiGDRvJAuzOnbuymOrXvz+mTJ6EwkWKSrxTxkNdsXwZpkydJv9NMYEBiIcMGapWqqG9kkNx/tasXo0LFy+ge3euR4zx5s1bzJg+Xayuli5ZjGzZc8gBF/QCGT58GNauW48rV66I238EMzNMmzYdkSP7HV4iFBdfs/aHCXh4uWP6iRY4+XjRv0KVMazNYsDRzQ5e3u4+ucsWryY65F8Ic9P/LP0Y94rr6AYNGyJHjhxy7atXr9CjR3cMHTpMQvKUL19eDgu6fesW+vTth/Xr12H1qlWwtIyIGDFjoH37DnKQ0JkzZzB1ymSMHj1GBFy6FLZu3QYFCxX6w4T09SFNQE8hDKSAxcspUjk5OUpMAwpZhsTTuT5++IDI38Q0YGflok7dFkK6OYf/579a0gifry3+rqBGEWxhbBYdno4PJKi772RsEQOx/lnyQyssTy/g7GMnHL7rCC8vb+RJGhH5klnhk7MX1l50wNvPHkgYxQzVs9kiYgRjnHzohNjWpkgS44tI4eDkic1XPqJhbo3jEf5bn5ZQCYR+AozDRktpurAaxNTQn2vNYVgj0K1rF1SvUVMCsTPxlCy6dJUrX07cq/PkyYsCBQqIZcHGjRtkYcY5YulSJSX2EC0ENCmBoBLo2KE9ypUrj5KlSskjuC6ZN2+uuA5evnwJGTNmQrly5XD9+nURVGfPmSvtr1q1qihRvDjatG0X1FfrfUpACNg5vcTc0+1w7dVOuHs5f0XF1NgCqWIUQrOcMxDHJmmwEOOpm58/f5ZThrlJpenvJkABa/ZRO+RPboWUMb+sSX2np/bu2HPzMxrljoKoVv9pNcFJzcibM84QSIzJsmjxIvGpDagry+fPnzBwwEBs2749BHKkj1QCv0bAfv9EOF5bHaiHGFvHQdSS/WGR4OvTuQL1EL1YCSgBJaAElIASCBIBige04O/SuQsWLFgghwloUgK/iwDb3+PHj9GhQ3vMnDET8RMk+F2v1veEYwL2zq9x/OEG3HizCx9d7GQDPZJ5FKSMXgwFktZAdKt44bj0WrQ/ScDd0xvrLn7A7VeusOQpZN8kV3cvJIpmhppZbX/4e3DkPcQELGcnJ+z7f/DMly9eBDif3vBGpkyZfXbVAnyjXqgEfgMBbzdneNg/DdSbjMytYWITC0bGIaNAByozerESUAJKQAkogb+MAIO5r1u3DhUrVkLlypX/stJrcf80AQa+njt3DooUKYq6dev+6ezo+8MZgU+udvjs6iClsjKzhY1FtHBWQi1OaCRAKyx7J0/8yAyKNnq2EU1gbf69uBVcZQkxAYsZlBMJPDy+car6edZplkhrLTVPDK7q1ecoASWgBJSAElACSuDvJUAXQ85H6drKQy40KYHfSYABs+lmyPbnO/TJ78yDvksJKAElEJ4IhKiAFZ5AaVmUgBJQAkpACSgBJaAElIASUAJKQAkoASWgBP4MARWw/gx3fasSUAJKQAkoASWgBJSAElACSkAJKAEloASUQAAJqIAVQFB6mRJQAkpACSgBJaAElIASUAJKQAkoASWgBJTAnyEQfAJWyBxm+Geo6FuVgBJQAkpACSgBJaAElIASUAJKQAkoASWgBIKXgBHDvQctBZuA5eLsFLQc6F1KQAkoASWgBJSAElACSkAJKAEloASUgBJQAuGegIVlxCCXMdgErCDnQG9UAkpACSgBJaAElIASUAJKQAkoASWgBJSAElACfhBQAUubhxJQAkpACSgBJaAElIASUAJKQAkoASWgBJRAqCagAlaorh7NnBJQAkpACSgBJaAElIASUAJKQAkoASWgBJSACljaBpSAElACSkAJKAEloASUgBJQAkpACSgBJaAEQjWBEBOwvL298fTpU9y5cweeHh4BgmBhaYncuXPD3Nz8f+ydBXiQ1dvG73X3gLGN7u6Q7u4UJUUQkVZKwKBVQpRuEAlppLu7kWbAYBtsY939ffczNwfi3xFD4jnXxQVsb/7e857znPuJN13b60ZKQAkoASWgBJSAElACSkAJKAEloASUgBJQAm8/gQwTsB4+fIhJP3wPd/dssLRMX5V5Hx8fhIaGYsrUqW8/eb1DJaAElIASUAJKQAkoASWgBJSAElACSkAJvGEEQqMSsOdaeOpV1yxgA3tLwwy/iwwTsG7f9sD6desx6PPPYWBgkK4bSUxMRMUK5XHy1Ol0ba8bKQEloASUgBJQAkpACSgBJaAElIASeFcIJEVFIf7OXcQePYl4Dw8gKQnGuXLBtFJ5GOfOBQMrq3cFhd7nKyYQEpWAsOhEOevqs8G46B2NEu4WuPwgGnmcTdGxvIP8ztrMEPaWRhlydRknYHl4YP2G9fj88y+e6cLLlS2DU6fPPNM+urESUAJKQAkoASWgBJSAElACSkAJKIG3mUBiaCgi5i9F2NKViLt577FbNc6ZFTYftIX1J11h6Oz8NmPQe/uPCBy4EYENF0PgbGWM0OgEGBkaILONMR6FxyMmPgmOVkbwC4tHw8I2qFfYJkOu8o0TsPz8/ODhcQuurq7IkSPnY1ACAwMRHh6G7NlzyM/j4uJw69YtiQArWLBghgDUgyoBJaAEXiWBmJgYXL9+DSYmJihUqHDqqR89eiTjXd48eeCcKdOrvCQ91ztCIDnNP+Sxu3VyckamP/sb52dGX9vY2CBfvvwwNDTErVs3YQADODg4IHOWLO8IKb1NJaAElIASUAIZQyBs0o8I/mE2DDPZIv7Ow8cFrHyuSPAOhN1nXWE3aihg9HgETHh4OHx8vMGsJ2trG2TNmhVGT2yTMVetR31bCPiHxWPu4UDUyG+FfJn/XrfcKygO2y6HoVMFB2R3NMmQ237jBKy2bdogR84cOHfuHIYMHoL6DRqAL+PmzZuxcMF89Oj5Cdq2bQsWkf9x6lScOnUSkZGRqFy5Cr4YPDjd6YwZQlsP+sYTiE9Iwv4bEYhLAMxMgcIu5rC3MIK5SfrSZP8NQGISEBwVj7P3ovEgJA65M5miUi4rbLscisw2Jiibw+KxQ4zY+BB1C9nIIJK2/eETg/uBcTA2SkJuZzPkcDSBsZEBpu7xR4381iiV7fHj/K/rGrHpIVoWt0XZnH/VsvMOjkdodDwKuZjLrlFxibjlF4s8mUxx1CNS+CQmJcHQwAAmRoC5iSHCoxPB+4MBwOzoom7miE9MxBWfWJgYAzmcTOU6jQyBk3eiUC6HBUyMn85119VwXPCKwhd1M16o2X8zAl5BsXi/rD2MDV/Oc/63fvBPv+e4NnLkCNy/dw8RkZEoXbo0vvxyBE6fPoWxY8YgZ86cCA4OxrDhX6JQoULPexrdTwk8lcDMGTNw6NBB+Pr6ioDq5OSE5s1boFHjxpg/fx7Wr1+PAgUKICgwCJ/27o0SJUqgcaOGcHNzA8WtKlWq4quvv053XUx9DErgnwjEx8dLn7p27Spq1aotm8XGxuLKlSvy8+LFi8PFxeWx3SMiIsR2TEpMRKnSpWTxltJ4PO57/54n8ubLj3z58okAm/b3N2/ehOfduyhcpAjc3d1Tf5+QkIC7d+/A3t4B/v7+uHnjBtzc3VGkSJHHPkrEsfnKlcuoUKGiLhjfgq7Nfnbnzh2UL19e1xZvwfN8U24h4eYteFesB/OKZeE0ezLCfpqO0PlrJIXQpnNz2H09EoG9BiJyz2G4HtgE42JFH7u1gwcOYPz4cbCxtYW/nx8cHZ3Qr18/VK9RQ/vxm9IJ/uPrjIxNFAGrfmEbhEUlIDaei7vkxqpRbg4m2HAhVAQsJytNIRQwFKNYFP7XZctw8uQJTPvpZ5w5fRpHjh4Vw6N8hYoiYHl7eWHIkMH4cdpPoGHSpnUrrFi5CtmzZ/+PH7ue/k0mwFDJejPuoHQ2C8QZGMA3NB7FM5nis+pOyGr3YipzQmISdlwNx6JjgXBxMIWrjRFuBcVhfjs37L8ZLqGaxdySBaOU9v7Ce2hf2h4tS9o+9vM+Gx/iYWAs3OyMccU/Fv0rO6FxERt8vtYHLUvYomo+63Q/htYLPPFZFSfUKvDXPstPh+CCbzS+a5wcUXE/KA5TdvujXy1nLD0ZJGGku29Hon5eKzhaGsHe3Ai+YfE4dCcSFqYGKOtmgRbFbXH6XjRWXAhGGXcLXPKNRcXs5uhfzRktf7mPjZ2ywcn66QPfilPBOHI7AtPbu6X7Pp53w1UXQnHLPwZDajrDxOi/FbC4QGvbtg2mT58BLppatWyBPXv34qdp01C9eg1UqVoVixYuhKmpKTp17vzYAux571/3UwJpCbDfLV60CHb29mjTpo1EOq9csUKiAj//YrBEWvFnFFv5UZZRI0di4nffySEG9O+Pzp07o2atWgpVCTw3gRSn5cYN65EzV25MmDBBoglmzZyB69dvIFu2bPD0vIvxEybC1jZ5bmTk6rChQ6R/RkVFwdDICGPGjE0dI0+dOoUtm3+Hq5sb9uzZgwH9B+C9SpVSr5E/27hxgwhbu3buxOgxY1GyZEn5PQVdOkyrVa+GY8eOIXeu3Dh9+jRq16mDli1byjYcuydOnIDdu3Zh2/YdsNL6NM/9/F+HHTkOTpv2I1atXInFi5egUOG/oqFfh+vTa3h7CQQPHoKQmSthnM0FDqOHwLJ5U4ROnoakmFjYft4PMYeOIHD4GMR5eMG2SzM4zJz+GAwKWKfPnEbv3p/J+Ldv316xG3+YNFnGTorwd+/eFSdV/vz5xZ68evUqMmfOjHv37sHR6qdvBgAAIABJREFU0RF58uSRbTie2tnZyTr7/v37Es1lbv74OuXtfRLv7p2lFbAO3YoA/5/SKGA1L26rAtaT3SMgIAC3PTzw2+rVqFGjOho3biIvDsMfp0yZLOmDFLA2bdqEY0ePYsLEiXKITp06olu3bqmeune32+mdvwgBClg9l3vhu+ZZkd3JFHcfxeK7vf4o7W6BHpUcwbDK7ZfDJAe4QREbuNga47BHBLLYGOPYnUiJ1qpbyBoXvKJha2GEEn8KUgy1tDQxwLyjgfjoPUdUz2clOcU8jqmxAc7fi4K9lRFyOZnCwz8We6+Hy1ceVp4OkWJ5jMxixNbD0DhYmBhi440I1M1ticaFbfD9gQCYGgKDqjvjizQC1hWfaBy+HSFRUvUK2UiYJzX0Kz4xOOIRATMTA9QpaI1+a31EwCqXw1LupUhWMxy+HfWPAhav0Ts4Dl9seICf2rgik7VxKvJvN/vCycYIfaon5+XPPRQI34g4jGqQBXcD4tBgkSd+6+CO3pseioDFKK6bfrEIjIzHnUexqJDLEmVzWGLV6WDsuhaGtqXt4RkQi4q5LVHSPTmq7Oy9KJzyjBSxqXZBG4nquvowBomJSSjiyqivJOy7Ho7Keayw/0Y4XO1Mce5+JCzNDNG6pJ1EqpHl3hvhCI9JQlBsIiguvg4CFhdpX40aBVc3VxHzAwMC0PuzPmBkTJ++fSW1mgstRmQNGvS5GCDalMDLJPCkgMXU/alTpqBZ8+YoV67cY6diWmuKgGVjbY3evXujTdu2qFOnzsu8JD3WO0YgLCxMIqnOnjkNXz9/EbCY3vpZ708xd958SWFlpCrtw5o1awqdEydO4LuJE/Dr8uWIiIhEp44dMWfOHGTPkVxygrallaUlzC0s8OOPU0WEHTx4SCrZgQMHoFnTZqhRsyZmz5qJwKAgjBgxUn6/atVK+Pv544MPP4SFhYX8+f3333H1yhUMGTpUttm/fx+2btmK48ePqYD1FvRXb29vTJ0yWRzqxiYm+Oqrr+Wu6Fg3MDCUxT2SEtG4SVNZ9LMxOpXrlQsXLogznYKANiXwrAR8ylRB3LXkPmXslhkO3w6GRbMmQGIionfvRuCXExB/Lzmt0MjdEe7Xzz92irQCFsUmjnXffPM1CuQvgHr164uYRVEqKDgIbq5uaNqsGXp/2guly5SBtbU1Ll28KM6B9evWSZQrI7AZNLJw4UL0HzBA9tX2dhNQAespz/ffirhv27ZVoq+4eKMHrGjRv0IjJ0+elCpgzZs7F8HBQRg8JNl4GNC/H2rXqYumTZu+3b1K7y5DCaQVsJjyRsFn1ZlgnL8fhfHNs+KT5feRzd4UFiYGWHs5HBu7Z8eAzQ8RHByHzuUcsOJiCD4sYw/jRGDTtTAsfN8dQZHxKD/jDr6q7ow/fKIxpmkWEaFSGtPuJu3yRwEXM1TKbYnas+6gS0l7RMYlYtLxICxu5QprMwOM3emHyjksUSWvNbZ6RMDeCMjtaIY9N8LQv4Yzyue0xKA1yRFYlmZGaLvMC0OqOuJRWDw2XwvD7t655QsS43b6oUUxW1iZGqGgiylG7/BDr0qO8AiIw0XvKExo5oLNf4Rj+81wfFbBUS7TLzweGy+GYGSjzCKyPY+AddErGh/85o0NHbOh61ofEbDuBsai52pvNCtsCxdrI+y+EY4JTV1wyjMKX+/yQ+dSdrAzN8K4IwE41CMn7gXFYdwuP3Qp54h7QTG4/CAGiztlw6+nghCTkITeVZ3EU9DlV2/83Corui6/j6i4JHQp64DlF4LRo7wj6hWyxoitvrAzM0QJF3NMPvQILYrbvTYC1hdffC6RLZEREVIH8OMePbBo0UL069dfDOIjR47IYomLL3rOtCmBl0ngSQHrwYMHEonQ4+MeyJM372OnooBFoaB6jeq4cvkKzM3NMGnylNSomJd5XXqsd4sAI/zWrFmDs2fPioDFCKr58+Zhzty5AmLGjOkSXfDpp73l/7/+ugw3rt/At6NHy/+7dumM7h/3QNWqVR8Dx0ip/v36oUHDhmjevHnq71q1aompU39EjhzJJSwY7UWxTCL827TG99//INEKbPFxcZg3by4sLCzRtVs3qTczY8YMtGnTFv379VUB6y3oqpxjjx45gk6du4hwOmfOXGR1dcWokSNw/fp1edbbt29H8RLFUbx4CZw4fly+yh4cFIRZs2aiU6fOfxsv3wIseguvgIBX3pJIeBCYeib73u/D7vvkKOeQb0cj+IcFqb8zsDFD9oc3H7uqJwUs/vLnn6YhMjJK+uupkyfRp28/iVSd9MMP6P5xd3zaqxdmzJwlY9yXw4ejYaNGMp8fPHAQAwYOxKqVKxATG4tevT7VNMRX0Af+61OogPWUJ/BvAlbKLowyGP3tN9i7b39qLYG0AtbaNWtw/vw5jBk7Tnbp0rkzevTsITU4tCmB5yXwpIDF42y8GIojtyLQpYID3v/NG1MaZ4GDpRF6rPTG+IZZMP9sCPpWdECNfFZYdCIID4LjMLhOJrRbdA/jGmfBgVsRuPYwBpXyWeG0ZxTGNs4CszS1nyhgTdzuh4JZzfAwOA4XH0Rjdgd3iU6q8qMHBtfMLGl5v5wIwq/dklNkmULo6RuNLNbG8A6Nw0flHNC6tH1qBNaq8yEomMkMfWo4M20ebebfRbOidrgbFg8XGyP0rOgoecxsTCHM5WiKe0GxGN/UBXkzmWHZqRCM3+eHkpmSi/exBlZEbBLmdHB7JgFr1sFArLkYgrJu5tjrGYlBTHUsZotGi+6JgHUnIAbzjwaJqGdubIix23zRvISdRF39ci4EG7pnh6mRAT5b4YWibhY49ygGdXNZoW0pOxGqOiz3wrDqzrjkE43o+ET0q+6MiNhEfLDEC7PbueKDpffwyXuOUt9qwZFAXPeNQccKDph16BG+buQiX9WYfTwIQRHxr4WAtXv3LhHwZ8+ZK0ZCkyaN0bNHT1nE9e3XF1mzumLv3j24ePEi+vTpC2Pjv6LfnrfP635KIC2BJwUsilSce9u1a49SpUo9Bou/69a1C5o2bSaLtWrVqmlUoHanl0Zg9erVqQIWF2Xr1q2VshFsFJC4AKOwzzZ3zhypD5gSEdXrk55o27adpPmlNPZXpsMyhebrb75JTS+kWNawQX0sXrIELi5Zce3aNfzw/XeYN38Bdu7YgS1bNuPn6TPkMBHh4dixYwdOnjyJvv36yQcOKFgwcqFRo8Zo17YNNv2+Gfb29rrQe2k94dUeiCIno/ScnZylDu+4sWNQp05dtGzVCl8OHyaOpV6ffoq9e5matQDjxk/AlMmTMHLUV1Iza8eO7Rg4cJCmkb7ax/bWnM2/w4eI3HQIBhZmsOnQFPZTv0fcmbNIiomBWYXyCB71LUIXrUFSZDQsapVG5t83PHbvTwpYTK8e8eWXqF27NuiQWrJksdS3ZMuZM5ek/fft2we7du+R9MCJEyZIKnWFihUxZ85sdOnSVUSt0WPG6AfT3ppe9r9vRAWsp/D5XwIWow4Y6sj82xMnjmPokCHyQqVEGaQVsDw8PDBq1EjxmDFaq8fH3fHr8hXIol9Bekder4y5zScFLKb4TdrrDxtTQxR1McfHGx+gTTFbMUzNjIAWBW0w7kAAfmiUGbmdTLH6bAhu+cVgeIPM+G6XP+wsjPD75VBMbJIFjyISsPREMKa1zQpb879qP6UVsC57R8Pc1ACD6yaHnjeedQcfv+ckAtbRWxEY3Sy5aC0FLKYQNitmi91Xw7D6XAh+bueG4RseSATWz4cD8WFpezQvkVwfpN9qb+RzNoNnWDyq57VC0zSfPaWA5RUej3JuFhjbKAvsLY3wv2pgPUsE1uyDgThxPxJdyzvA3d4YeTKZITQ68TEBi9c+vF5mSe2bsMNPigZ6B8VJNNaCD93l+kdufCjXdTEwFr0rOqBiDksR5jqt8ELHknYSmRUel4hBNZwRFpOI9kvuY0F7NxGwRjfMgqp5rbD6bDAO3oxAp4oOWHwiCOOauEjK59KzweAXNV6HFMLt27dhxfIVmPbTTzIWduncCf3698eRI0dRvXp1EQgWLlwAJ0cntG7TRmtgZcww8E4f9UkBi8YvI18CAwMkooVzLKMMTExNpe5PSgqhphW8090mQ24+rYDFtCyKSr8s+1XmXy6y8hcogFatWsm516xZjcOHDqXWRW3fri3Gjh2XWruI4hajtljDhdEzKbWzUi78/fbt8PU338rHMVjHis6Eb74djc8HDZR+zw9qBAUFYd7cOeJUbf9+Byn0funSJYwY8aWk13Lxx5pJQ4cNQ5MmTSRCS9ubRyDg0SP06dMHOXPlhIO9Pe56esLRwVGe6/hxY1GmTFlJlWakHv+/ctVvImDlL1BQSqDky58PTZpoNsib9+RfjyuO2bwFDz/8DOZlisFpwU+Iv3oNgSMmAHHxsP/mC5hXq4JH3Xoj6vBpZJ4/CRZt2/xNwDp2/Bg+/vhjibrav2+f1OyjAHXkyGGcOX0GAwcNkg9QPHrkL383b9YMu/fslX8zFTtv3nxSNoDifGBAIAICAzBt2k9qc74eXSTDr0IFrGcUsPgFmHFjx8LMzBTxCQniPWvQoEHqUThBsAYWJw56zFjYmC+loaEBWrVujWbNmqvHK8O79dt9AgpY3Zbdx4h6WWBmZICtV8NwwisaoxtklmLl7y+5h59buaJwVjMcux2F4u7m6LbaB5MaZ5YoJooxt3yTBSxGXo3f4YestiZY2NEdARHxGLjuAdztTCTlj1Fc5+5HSd2nlAgsfulhzvEgrO6SDT6h8ai/wBMzm2UVAev47Qh80+QvAauCqzlq5bXCsjPBIvhMapUVw9YnC1gnPaNwxisKs9q7ITAyAa2W3Mf8Nq447hkJD/8YTGiWFXEJSVKDq+dKL7QqZosDnlHI42SKAdWcsPZ86EuvgZXSc/5JwGJNKwpY9f4UsCYfDcSaju4SKdZgnifmtHTFYc9IBITGY3xzF6mZNfT3B5jZ1g1H7kZhn0c4fmjigs2XQjHndDCWd3B/TMBaczYEB5gWWd0ZY7b5Yli9zPJVxZ6/ecvXFl8HAYvFi8eNGwuv+/eRkJCI/PnzSZo0F0mzZ82CiYkxXLJmRa9eveDmlizuaVMCL5PAkwIWj+3r+xBLFi/G+QsXYGpiKgv4Pn37IFu27CpgvUz4eqzHCKQVsMLDwyRSYNDAQciZKxfGjP5WBCYuuOjEZKofBf9FixdLvSvWbVuwcBEYdUWxipFXXIT17PmJ1LCiCMbGL81RiGIB9mzu2cQxwJIUFCD4dc1Vq1bhu++/lz6/bu1a+fL1wEGfS3QNj0GB9949TzkWr2PQoEGYP3+B1EPSCNk3s0NvWL8ehw8fwoCBg+S5M2Jv4YIFEnW1ZPEilClbTj5wcf7cOZmvV69ZizNnzuDHqVNgYMh6vVPg7JxcB1SbEnhmAtExCPj4M0TuPwGLepURc/Ak4h88ksMYZXGCed3KiN5+CGZli8F58WwY2Dz+0SZGYHE8YxQoI604XrJeYMGCBaWWINMJ2afZt/lhIEaOtmieVsCaiLx588pYyI9WjBzxpaRQlylb9plvRXd4MwmkFbB8Q+IRm5CmiPv/p+zny2KmRdyffLTR0dHgp5D54vHl+rfGbRmhpcWM/42U/j49BChgFf/hFnyiE5HfygiNCtpgQK1McLVPTtWacygQ4/b6Iyw+CQ1zW0pKXfe1D/B9w8zI6WiKtecZgRWLofUywSckHj3W+OCTCg5oVjT5c94PQ+MxeJ0PfrsVIRFE5TKZ4lD/PPh+px8KuphJRFW3ZV5YcyMc72U1h3ES0KuqEywpYN2JwFeNkgWsfpseYvb/RxGZGAD1c1iIIFUgixmGrPNBsxJ2KJvdAn1X+WD5tTA4mxhidP3M6FLRAX5h8Rj++0OsuxoOVxtjzGiRFTOPBKD3e47ImckU3df4oBtreMEAF/yiMaFR8lcIGaE0de8j9K3hhJx/1sAauukBprZ6vIj7mK2+cLI2Ru9qyeHJ844ESv2sEfX/KmZKAavpkntSC+t2QCzWnQ/B4LqZYGJogO93+aNOIWv48KuHB/wRlWAgaY/fVnfCwDqZ4B8ej8/X+WDDjUhktTDEV3Uzo0M5e6nJ1XWVN877RKN5Pis8iknE3LZu6LjsPr6tnxmV81ph3bkQERV/aJlVruub/f6wNjJE1ZyWKORqji+qO/3nXyEkM4rzHNc4pnFxltJY4D0kOBgOjsl1ybQpgVdNgH2T4gAFAa2/9qrpv3vnW7t2jYgEKaUiGPHS57PeMkYyMpVprRSmWIOq/4CB2LBhPb7/7jv5guaUKVORO3dujB83DvXq1cPqNavBhV1KY8Qga74smD9f6mZFRIRj4IABYHR/ixYt8eWIEZgx/WcULlIUdevWld2mTJ6MpUuXyBdi2ZydM2Hf/v2px6QDommTxti8Zaumj73B3ZX101q3biPFrdkoUk6bNg358uUVp3mZMmXQqlVrKdbOCKxVv62WPtm6VStUq1ZVhC9tSuBFCCR4eyOg5wBEHThJo/DxQ/1/BKp52WJwmjcVxvnyPfNp2FcZTUr78t++lspsKH6VeNbsOc98Ht3hzSWQImDxo2R08D/ZWOaF5XU6VXCAk9W/azXPQ8IgiT01Axo/Ybzsl2Xo8MEH6fYy0TvFApc7du7KgCvSQyqBV0OANZb4Vlmb/VWI/ckzJ/y/MXPJOwbzjwRgeP3McLN//Gtx0XGMfkqEjbkRDP+sRZVyDB6bhcf5dULjfz5Fum6WgxAjFM3T1NzijsGRCXJ8S36+8DVu5EQ8/GJi2hYekyiCV9qfp0SU/a/n8tgxohNlf0Z+aVMCSkAJKIHXnwDFo7jYWPmaIBuFff5JiXZiWisjo1KcmozMYrF3/nmy0Tzm8VL25bb8w1RARigw+qp169aSdqhNCfwTAfYjRrZ88klPTP95ukS8aFMCL0og0ccH4ctWIGrnYSSGhtG9CUMbG5hXLw/rLh1hlCO5Jm5GNdZeXbd2DapWq4b69f/Khsqo8+lxXx8CsQlJ+PVkEG74xsLqKWtd1kXO5mAiApZVBq0jM0zAoqdp69atUhfD0CB9i2AaBqxZoJ/Yfn06qV5JxhDYdTUMS8+FoHZuK3xQ1l7EIm1KQAkoASWgBJTA60+A2QCMNmTNN00FfP2f1395hefPn8eihQvlq+k9evb8Ly9Fz/0WEkj080Pio+QUQkNHRxi6JGdiZHRjTcGIyEipvcq0a23vFoGw6ET4h8Xjr+TBv+6fK1pnayOp85xRLcMELF4ww2o5yac3yIseMH6p5WmesIwCoMdVAv8FARZsZ+2pbHbGsMggdfq/uC89pxJQAkpACSgBJaAElEAygZCQEAQGBkqkHqP3tCkBJaAElMCLEchQAevFLk33VgJKQAkoASWgBJSAElACSkAJKAEloASUgBJQAoAKWNoLlIASUAJKQAkoASWgBJSAElACSkAJKAEloAReawIqYL3Wj0cvTgkoASWgBJSAElACSkAJKAEloASUgBJQAkpABSztA0pACSgBJaAElIASUAJKQAkoASWgBJSAElACrzWBlyZghYeGvNY3qhenBJSAElACSkAJKAEloASUgBJQAkpACSgBJfDfEbC2tXvuk780ASs0OPC5L0J3VAJKQAkoASWgBJSAElACSkAJKAEloASUgBJ4uwnY2js+9w2qgPXc6HRHJaAElIASUAJKQAkoASWgBJSAElACSkAJKIH0ElABK72kdDsloASUgBJQAkpACSgBJaAElIASUAJKQAkogf+EgApY/wl2PakSUAJKQAkoASWgBJSAElACSkAJKAEloASUQHoJvLYCVnx8POLi4gEkpeteDAwMYGZmBv6tTQkoASWgBJSAElACSkAJKAEloASUgBJQAkrg7SHwWgpYCQkJCA4OgZGRUboFKe6TlJQEJ6fnL+r19jxWvRMloASUgBJQAkpACSgBJaAElIASUAJKQAm8XgTiqfcEBaVelL29PYyNjdN1ka+lgBUXF4fw8Ag4ONin6ya4EeO07t+7j+zZs6V7H91QCSgBJaAElIASUAJKQAkoASWgBJTAu0AgITEeEXEh8Aq7Af/I+0hKApwtXZHNtgCsTOxhbGjyLmDQe/wPCDDgKDExUc784KEvQkPDYGNjLbqPlZUl3Fyzyu8MDQ0lkOmf2lsjYPEG76mA9R90RT2lElACSkAJKAEloASUgBJQAkpACbzOBGITonDJ7xDO+u5GUNSDxy7V1iwTSrnURvHM1WFhbP0634Ze2xtKIDAoCI8eBcDY2ARxcbGSaccSUDExsSJsmZmZgoFMjo6OcP4fWXXvnIAVERmJBz4+sLCwgJubG6KjoxEUFIykpEQYGhpJ1BdBUiF8+NAXLKnl6uqa2k3CwsLg6+uLLFmywMbGRn6evO1DeQhpt31D+5ZethJQAm8xgdjYWISGhsLZ2fktvku9tdeVAOtbhoSEwMHBQTxs2pSAElACSkAJKIFXQ+CE9xac8Pkd0fERTz2hqZEFymZtgMruLWBg8PQ5OiIiQtbPTk5Oqcc4feYMsmfPDq6Tg4OCUaZM6VdzQ3qWN4pATEwM7nv5iN5iaWHxt2vn7x8FBMLV1eWpv0/Z4Z0SsLy8vbF48RKYm5sjICAA48eNw+kzp7F+/XqYmZrB0tISbdq0Rq5cubBx0yacOXNWXtDKlSqhefNm8Lh9G/PmzUOmTJlFHezcqaMIVhs2bsS5c+cRFRWFKpUro1mzpm9UZ9KLfbUEOPAHBgYiW7a/0l23bd8OV1c32Nna4OrVa2jYsMEzXxQXhoxCzJbNHSYmf4X/+vn5Sd+2tn4+b0p4eDj4x8XF5R+vycvLW/q/ubmZvBP/K+zzmW8szQ6PHj3CufMXUOm9irCysnqRQ72z+548dQq//roco0d/Cztb23eWg974f0Pg+vUbmL9gAfr27YPsacbA/+Zq9KzvGgHOkZkzZxI7kI0OSF9fPxH0d+3ejcqV3gPrcLyMtn//AWRxcUG+vHnw4MFDqdHKuZgtJjYWj/wfwc3tLwfpyzjnPx2DjouDhw6hcOHCcM2anKKh7dUTuHvXU/pfSj9gxIG//yOxz3bs3Ilq1arCOY0o8CJXePbsWQAGKFWqJHx8HsDa2gp2dnZySK5hGAXh4pIl3bWGX+RaeJ8nTpyEg6MDChYo8CKH0n1fgEBItD/mnR+CxCR+JO3vrbhrTVx5eASJSQnoVnwcnCzdnrrdgoWL4OHhgVGjRsLiz7F0yZKlqFChAnwePMD9+/fRpXOnF7hS3fVtJcA518vbR6KrJJ2Q+atpGoOI/Pz84ZrV5bG17JM83hkBi4PnvPkLULp0KZQtUyZ1wD58+DBCw8LQqGHDVDbBwcGYOWsWevXqJXBHjx6DEV8OF+OmSOEiKF68GLZu2yYL6FIlS2HO3Lno9UlPUEAYO248vho1SovJv61v3gveF/vh5s1bsHPXLgwfPgxuf0b3LVq0GHny5IGjk6NM8t0/6vbMZ0r4/9DLCRMmokb16qhSpbLsTwF21uw5aNWqJXJkz57uYx47fhwuWVyQK1dOnDx5CqdOncJnn/X+x/1/mDRZRCsjYyP4+fqhX7++yJI5c7rPl94Nvb29sf/AATRp3DjVEEvvvrodQM/G+g0bcevmTeTNlxfvt28vWBiRlZiYJCJkQmICXLJkEQOX29PgZXQpvWqMUmWOujYl8DwEOEbt3LlTxrjcuXOLE4iNAjnn2qjoaMTHxSFTpkx/9rlw8dIxUovCP7exVdH1edDrPn8SmDtvPooWKYJKld6Tn3jeu4dtW7fh/ffb4/CRI6j03nuSupC2HTh4EAUKFJBx8Vnab6tXI2fOnMifLx9mzpotdmH3jz6SIrX373th5cqVGDz4i388JJ2j1apW/dv1PMs1pGzLd2vduvV4r2IFefe0/TcE5i9YKKJlg/r1ZYxjOs3q1avRoEEDnD59GlWrVEHmJ2wnRrbwZ88q+O/Zs5f6ldiE0376GYaGBujWtavM6Vwgrl6zBj0+7g5TU9OnwqCdWrJkSWTOlOmFYXHs5rqJ71C5cuVe+Hh6gOcjsPP2Ipz33Ss7s//x42dspkbmqJm3A0q718W6Sz/iut9JFM5UGU3y9vrbifwfPcKPP06Ds7MTqlatKmtqtqcJWCKUBgQgNiZW6hzROUB7k+sFZjGFhYUjPj5OIrJpB3CNpHP88z3bN2WvtAJWUHCI2HVpGwV+FbDSEGHEy9Qfp6Fxo4aIjY2TxRu9ULv37JGolVIlS8DN3R2ZnJ1lwX7x0kX0+PhjOcKEid+hQoXyuH37Dlq1bCHGxJmzZ0V9dnN1w7Xr18QoSdmW5yhevPib0pf0Ol8hgSAaK2vWyFcHrG1s8EGH9+XsTxOwYuPicOf2bUll5aCfP38+hISGIiI8XMQuHosTQ768eWVC4P/v3PXE+fPn0eez3mIk0yA6c/acnMfT854sBu96eooRQSOWE5i/vz9u3roFI0MjFClaBEGBgViy9BfkzZsXFSuUl4GEAlavXp/gvpcXjAwNxfimB7FAgfySjvvTz9NRp04d5M+XF6PHjEXjRo3kneGEdOXqVcRExyB7juzI5u4OeoIfPHggEWi8Ri4gGAnEiZT3SoMrMCBQjk2vOIVhXh+95EZGhvC864mmTZuogPUc/Zbpz1u2bkWpUqWw7Nfl+GrUSGG/c+cu3LlzB1ldXeHj44PChQohR47sMs7Vr1dPohW2b9+BPHlyo2DBgs9xZt1FCUAE0mW//opixYph0++/Y/Dnn4vheuTIEZy/cFHGhEf+/nDPlg3ly5WVvkrnEreh8OXg4Ihy5coqSiXw3ASOnzgBj1seEm3PhfuRo0fh+9BXIudv3Lgh82JAQKDMQ5wbExMSpa+WKVMGxYoWlfNy4cbFF1NhQ0JCJeo5KDgYN2/clPktX758EtmSVsBasXKlzGF5bvE1AAAgAElEQVS1atUUUSqtgMVFGyMWOBdyri+QPz/u3LmLn37+Gc2bN0fOHNlhbGKCPLlzS6Hbh74PkStnTpkbGVnj6ppV3q1r167LAjBv3jwieNAZGxwSkvxVb0NDXLx0SQQsZhlcvXpVosOcnhDrnhus7pguAlevXcPevXvRtUsXcYJfvnwZJ06ewvvt2+HGjZvIly8vwiMixHnETJGkxCTs3bcPOXLkQPFixUQEYIQCU7dYEiUlio8C5bWr18QJkDtXLri7uyGtgEXhjPN/+fLl0aB+vccELEbsP3j4ELdv35a5ngIvbTQ6P6tXr47cuXLKOdlvWKfG28dbnK98fxhRliVLZtA5wT4VFxsnjk+WaImIiISvn684H3gfnveSbU8KWLQLHewdkDXrP0f2pwuobvRMBOac+xwh0X6wNXdC8aw1cMFnPyLjQlDKrS4aFvwIJ+5txb5bKxCXEA0LE1v0LTvjb8ffs3cv/P38kTtPbty8eQtt/xxLnxSwOnR4H4cOHZLxlesFrl+qVK4EXz8/sfGbNGmMDRs34dEjf1lD79y1W9bgDDTR9vYSeC0ErOCgAJFuLa2sYWLydAU/PY8gNDjwsc2e5yuEPMD/KuLOwXL27DmoXbuWLJoPHz6CoUMGg+lVNBQ40fs88EHrVq1w+coVqYrfvl1bua4ZM2fJYEyBoGXLFrC3s8Mff/yBi5f+kJBcTjRt27RJ3bZc2bIoX149DOl59u/aNjRWmAJXs2YNzJ4zFwP794ejo8PfBKxuXbtIH7127RqKFCmCGzdvyOKNhsGmTb9j1MgRYHrCvv378c3XX+H8+Qti1FarVg2TJ0+R0F0aPBRfa9Sojrx58kg/Zn46DY8LFy+g1yefiAG8Zu06+XloSAji4uPEUF+xYqXsTy91aEioCFjdu3+EtevWieFTsWIFnD1zFmXKlkGF8uXx47SfRGDju0UBuM9nn8HExBiLFi+Ga1ZX2NnZyzm5aGDOMyeqFs2biQG3du06EUUSExPw6/IVYmDxnfLy8sLngwaKcXfu7FmULlMaFy9cFOOOEWopofDvWh96kftlZB0XTmQ/fcZMlCtbRjxoa9asBdMzO3b8EDSwKWh92usTidaip5gCwoKFC9Hh/fZaO+tFHsA7vi/nYRq0XTp3Fm8txx2mS+/YsVMW1+xzXBBt375dUgxX/fYbypQug4IFC+CHHyahU6dOryzl6h1/VG/t7XOhzjm0RfPmIkT9unw5ihYtitKlSuH7HyZJVODpM2dx7tw5lChRQgQDRt9TPOD/z509J2kyFPO5YKdoxBITFMZoR9J+5Tw1ZMgQbNy0MTUCiyIYhS2KWp8PGiQL+pQIrJs3b2LX7j1yjmvXr4sAYe9gj7lz56F+/XpSc/XEiRMYOGAA/vjjMtatXy9zI8WpgwcPoWqVypIJUL58BXFKnT93Dn369oG3lzd+37xZHF4UNOiEpYDFv+/cvSs2rkY7vNquHhkZKQ7CenXryHOhreWS1UWipL7+5lt8/HF3eHp6ynMtUqQw7O3scfTYMXl+dIxTDKB4VbZsGbGRjh8/gQYN6ku/8fb2kcgW9hVmjRw5cjQ1AosOq5w5c2DP3n2gfWllaZUagRUYGIT1G9Yjf778uHf/Puzt7STicMGChWLrcf1z8eJFfNy9u9T7XbR4iRyD17Fs+XLUq1tX7oOpgXRonr9wQezF6KgoLF+xUq49e/YcCAoKFAGLQQQnT51E506dNVvl1XY//HT6U0THhcPdvgDalhiM8OhAHLu3CfXyd4VXyC1s+GMaYuOj5KoMDY3xRYVFj10hxUg6oerVrSci/tq1a8WhzNIhTwpYXHtwbm/2p8OZkdfsP3Xr1sHChYvQvXt3LF68WMT/z3p/io2bfpcgEUZga3t7CbwWAlaAv68IWNa2djA1NXtu2q9KwOIi7cvhw2SRPfH771GrZk2U/zOUlUA3b9kCO9vk/HB6wlLydydNniI55Iz8oIDFxRyjXDxu3xExi/m+nTp+KPtNnjIV9erVTfXUPTcU3fGtI8A+RiOWtQ6YpkAjoFTJkqhcudLfBKwPP+iAX5b9ipoUn/LmFXGB4f80ZsdPmChpqjRqzpw5g549Psa16zeQOZMzypYti1WrVsM5k5MYIBMnfodJP3wvno8pU6biq69GSb460yiqV68mnjHWSWjWtKmk6axYuUqM2nXrN4gwxSKMKSmEH33UTX7PCAh6ok+dOo37Xvdl3ylTfxQBitYSxScuNAMCHuHixUup6ZAMR6fXhpFaDCVv27YNrK2sxPBh5FdCfIIIZN9++w2iIiMxctRXGD5sKLZt3yG8KJDdvXtXoiYpGKuA9WyvCCPcpk37CdEx0VLHjx5WMvykZw9Z0NFD1qhRQ3EE0PM6buxoWfzQmGAUAr2u7du1e7aT6tZK4E8C7H8zZsyUlBkuiOg8YrTK0KFDcGD/AYki5ZjAKEwat8OHD5WULqYYsCbM2XPnJFVfmxJ4EQJMq//tt9UiRuXKnQvz5s2XaBim940eMwYff/yxpLhSjOIinW3K1Klo1qwZcufKjaVLl6JSpUoyH9GRefnyFem3nN/pXKGjc+rUH/Hl8OE4dPhQGgFrM+rUri0RN7c8bqFunbpSf3XgwAHYuHETzMzNRVxiRNXJkyfB6IVhw78URyujqVieomePHrh+4wZ27dolNifPx6gaNkbr8D7YFi9ZIpFVOXLkFDvho25dJUJm3bp1EqHFOnQUwGjLanu1BGStsXmLCIcV36uI7777Hp/07CmRSIOHDJVSDYyG9vC4jY+7J2d2LP3lF0nlo921ZctWcSJRWLp37544Ops2bQoLC3PpD+y3kyZNxpDBg0FhNCWFkALWexUryrhLJ8IHH3wgax6mEB44eEj6Uf16dWVMXrnqNzk3HZOdO3eSyHmmwDZv1gxMH6NowX+zntWxY8dFGGP01kfdkktfrN+wQaLu6QDdvGWr2A0UxWj30e5gzVQ6KBhto+3VEvj18hh4h96Qk5Z2q4umRXrDyNAYPqG3sOzMaITHBKVeUGar7OhafNxjF3jr1i1xNFNUp1hOm5zrYq6lnxSwytLpfOkSWrVsKRF8169fl4hX9hOK84y4ZhRhbGyMrIsYXUoBK6U+4aslo2d7VQRUwHoK6f8VgcUQ6p+nT0fv3p9KBAhr9rRu3Qq5cub686uD8bJY40vJPPPly1fItkzj4gTTr29fMRrKVyiPggUKYueunbC0sJSQ2pWrVuHTT3shNiZGjsuJg8aQNiWQlgDFop9++lnqXNnY2IonggYka2+sXLHysRpYjHRZtuxXNG7SWCKmaJTQO1Gndi1s3bYdDvb2MDE1hSFrE4WHwcjIWIxfRjTQK0wDnCkHpiamaNeujYTszpo1W6K12DjRlCpdSoSxAwcOInt2FpQ3kONS2Fr12+qnClgUmCpXqiyRYBcuXhQjq2mTxiJ4UJgqXKggWJCeUY3FihYRY4eTFxs91FeuXEHjxo3FCGtHAcvaWlLZWFeOAhbrWw0c0F8iw4YMHSbvHeuPMGKN7yVTGPft24/mzZqqgPWMrxe9tRQuGXlgamaKxIQE8cby+TGCL0XAYoQWjdUJ48dKdMFRptj4+aF9+3YSGaBNCTwPAY53jHD54IMOqQbq1q3bxOHDqALWWGOEJhdSLBBLZxPTqpg+wwUP6/gV0vTV50Gv+zxB4NDhw9K3GEFC25BzERdjaQUsjodc0LOlCFhM4ePcSfGAUcN00HBOa9eurSzUuTin4M95bMjgL2TsTKmBten3ZAGLqYV0XllZWko6P4UkOoZ8fR/C0TH5i16sV0nH1tBhw0XAouDLSOUkJEmqv4mpiWQJMNqG6d5/XP5DSlsw3ZuNtizTt/i76zeuo2WLFoiLjxfhjqIbBbgmjRv9zwK52mkyjgCfAaP83Fyz4vadu+KEZP9LK2Cx/ELTJk3kIh4TsLZug+P/p1RTHGKk1qHDR0RMOnL0iNhdzpmcJTr/i88H4bbH7b8JWEwvXbr0FxgYGopdyahXCllXrlxF1j+L+7MGDSPC6JikgMV0VTogGY3P6zS3MJfxml+oo+3IL84xep/OTDZmBlDQqlunDg4eOiz2Gt8n9stDhw6DWSocz/+p9lbGkdcj/+F/CNtuzZOxhK1CjiYonrU69t1aDo9H51N/bgAD1MnVBaVcaqdCo/i9e/cesQdLligufYildFiih1HVv/yy7LEi7tWqVpHtKXBxfDp69JikqjLlkI5pZnawH/BcjExln+YYmVEfgdKn/3oQUAHrKc/hfwlY3Jz1NBg6zUgTGg9ckHGhf8vDQ6JHuNhnOgMNkNWr14ingtXxmcJVu1ZNMVZoTDPtydTUBA0bNhQPAl88fkWELzdD0bmtNiXwJIHTp8+IiNOiRXMZoBlxwGgiGil7du95TMDq+OEHySHZBQtKOio9F0ePHZcUV6YKLlmyBLVq1RIvMlNrihQujHbt24k4ywiHVat+EwOCxi+9dZxwZs+eja+/+lPAWrpU6iBRAKOHtn379hINxcmFgtncefOQN09e1KxVE6dPnZaJhhFYImBVriwGDUPK+WVOFlSnOFalahVkz5YdGzduFPGM6Wnbd+xEt25d5brWrlsvxjvD4Ff/thotWrSAlbUVZs6YiUaNG4mARbFqQP9+iE9IwJAhQyXVgvUicufJI1+HYq0cGn5du3RWAesZXzEuvMwtLFJTozlecVHFkH8askyVYb0hClizZs/G+HFjER0Tgzlz5oqgyOeihsUzQtfNUwkwqpNRIvT4p7Tde/dKDRcK2dHRUWjT+nEBiw4kpllRwKJjyNjYSIkqgRcmwHmOiy2KBEwZZJQzW1oBi+kxdBixsQA2F1dlSpeWdGv2V0ZDMxWeohXno3Hjxss8yj7KequMLHyagMV6VTdu3hQbk3Wrvv3mazkO+z9tAfb5yIgImbcHff6F1GJlCi3FLo7FnD+Zfjbt5+mwt7VFjx4f48KFiyJgfPbZZwy4kfIEtWrWgLGxidSPpIBAAYtR3HQEMe2sVOmSIlIwI0HbqyXAlL0Vq1bB28sLjLbnGoMtrYAVGRklNXvZ6ORjtApTRenACwwKlCh0PkdGpnbq2BETJk4UIZWiLJ3un/+DgMXIQToTFi9ZKv2fdTD5xXX2SQoLrIfFrxMyIoxRf3Q4liheXEqs0M6jmMoofe5Pu4EOR6Z905ZlNDdFKV5vkcKF4O7ujsNHjoqTjAIWI7AMDSh63EaOnNnF3kj7xexX+xTezbPFJcRg3fUf4RnyhwAwNDCCk6UrAqMeIiExLhWKu00BtCo4EObGf33tm9F5jI5m2Qmmt7Jxnbx46VKpYbX5982oULECHvg8kOyMdm3bYveevbh92wPW1jbygRbWAOR4y8hVricooJqamUmGCJ2rzHbS9nYTSCtgcY3BtUjaxvk1w4u4v0kphITDRRi9BmwExIGT4eScTChI0WDh4EsPA+sY8OuEJsbGsi1FL0JmgcTwsHAJh31s29AwOR5rYnFbbUrgSQJMRaUYxQKubKwDwLoDzB1nIUR6xhj2f+LkSXTr1g23bnlgxYoVYM0EhtSyyCfTApmKM278BPG6FStWVKIaKGCxIGJKP9+4aZOEl7NmRsokwyipr78aJf+nB65kqZJSFHb9+g0STcX+XaVKFamPxLDwX5YtQ80aNSQ8/NTp0xL2SxGKnuFkAesSPG57iIDFe2OEDz1zrKPAqDIKYvTasfg3r5+FaSka02Dm15WYgkijhoIxo744qDEaLK2ANXLkCPg+fCghy3x/uS2j1lq3aqkC1jO+YhzrKEClNRg5zrE/0RdHMZO/Yz/gtnw2fCZcvDFKhoVdtSmB5yXA1GLOrWm97nyn2cf4czb+jv2P21JY5b+ZSk0hv4LWlXxe9LrfEwQ45rGotY+PN0aNHJlqs/EDJBRYj584CVtbG9SulSxgsRg2605xPqTjZ978+dJnmQbGRTpFCDoIWPuHizPOvQMG9BeHS86cueTjJhKBVae2fDyIff733zfj1JkzGDdmtKTNrli5Ag8ePJRrYdQybQVGQh8/flxSsPhRlK++/kbquFJ4YkaBtZW1OIgoTtFpxZICHMMrVqggdbm4SEwRsPiuUUTmh1kYDUF7gCUKWM8r5f3TjvJqCLD/0ZY6f/4cRn/7bWr/Gzx0KPr07o3bd+6IuJnydXT2R9qCdJA3athAIvi4PmHEPLNGKGZt2bJFnJGM+GN0Yf9+fcXByOgW2leSQvheRfkiJsdVRkLt2LUL33w1Ss7F/sO+wr7Jj/Cwn23Zuk3qEbK0AGthskYXy1SwptHSX5Yh4NEj6ecJf37o4ODBgzAzNRWRlbYePwiTVsDatm07MmfJIuIWP/zDEhqsh6SOsVfT71LOEhDlg6235uJBuMdTT+xs6Y5GeXrCxfrxiHv2W87NHGNSnhl/RnuRKYK0J2nfs3/xD3/GcScyKkr6mK2NjawFON6wn1GsNzdLLj/EY3D+177wavvCf3G2tAIW1xlPNopab7SAxboXtna24k1KT0v5ghmLBWpTAm8LAU4CHPwZMZiRRiZFMqYhmpn99TGG6GhOVMYvPKEwmooTG2tvpTS+r1FRFEks0vWoOODx6zfp3T5dB9WN/icBGhw0iPllLhb8z8j+p49CCTxJgIYvixH/cfmyRBg8zdBRakrgVRHgeJiywEqej2Ie65OcqxmhwG2ex4nJOZFlBszMzGXeTWkpC7v0HJMLQiQlaWrWq+oUr/A8afuf2IWRUeIwT2tT0UZ6XpuNTixG/rH/pnVy8bwUItLT/yik8t1IESVeIR491TMSCI72x6kH2+AZchmMymIzMTKFq01+VHBtDCeLrM94RN1cCaSPAMcvb58HEpzxNMGSgri5uRnc3Vz/5/rT1v75SzUZZFQEFm+Oxdw4oae3cVsO3Ezv06YElIASUAIvRuBRQACOHT0mnzRm2oA2JfAqCXDhzi8YMeogd+5cKqC+Svh6LiWgBJSAEnjrCYTGBCAsNlDu09rUAXZmWlj/rX/or8EN0kHJIIl/agym+Lf04tdSwOINUZCikJVeDYsZCBp6+Br0Sr0EJaAE3hoCHIc18uqteZxv3I1o/3vjHplesBJQAkpACSgBJaAEMpTAaytgZehd68GVgBJQAkpACSgBJaAElIASUAJKQAkoASWgBN4YAipgvTGPSi9UCSgBJaAElIASUAJKQAkoASWgBJSAElAC7yYBFbDezeeud60ElIASUAJKQAkoASWgBJSAElACSkAJKIE3hoAKWG/Mo9ILVQJKQAkoASWgBJSAElACSkAJKAEloASUwLtJ4LUQsKKiIt9N+nrXSkAJKAEloASUgBJQAkpACSgBJaAElIASUAL/SsDCwvJft/mnDQwC/H2T+EtrWzuYmpo994F0RyWgBJSAElACSkAJKAEloASUgBJQAkpACSgBJZARBFTAygiqekwloASUgBJQAkpACSgBJaAElIASUAJKQAkogZdGQAWsl4ZSD6QElIASUAJKQAkoASWgBJSAElACSkAJKAElkBEEVMDKCKp6TCWgBJSAElACSkAJKAEloASUgBJQAkpACSiBl0YgQwWsuLg4xMbGAklSZutfm4GhISwsLGBgYPCv2+oGSkAJKAEloASUgBJQAkpACSgBJaAElIASUALvBoEME7Di4+Pg99AXhkZGMDQ0TBdN7kPxKqurW7q2142UgBJQAkpACSgBJaAElIASUAJKQAkoASWgBF4dgfj4eAQEBKSe0MnJCcbGxhl+ARkmYMVERyMoMAAuzyBGJSUl4cofF1GkWIkMv3E9gRJQAkpACSgBJaAElIASUAJKQAkogTeJQGJSIuISouEZdAU+IbeRhCRktc2JnI7FYGpkBkMDozfpdvRa3yACiYmJoGbDdvfuXRGw7O3tERISIn/nzp1bfsegpPQGMT3r7WeogBUYGIisrq7PdE1/XLyAosVVwHomaLqxElACSkAJKAEloASUgBJQAkpACbzVBGITovHHg8M4cnc9fMPuPnavTlauqJSzJUq4Voe5sdVbzUFv7r8h4O/vj4cPH0qkVVRUlAhVVlZWiIyMREJCgvybZaQyZ86MLFmyZMhFvpECFmE98PGBuYUFXF1dER0djZCQYFARNDQ0EvXPzMxMIPr5+Qm4rFmzpgIMDw+Hr6+vgLWxsUn9OcPguD2PqU0JKAEl8LoSYG3BsNBQODk7v66XqNf1FhPgXBkaGipzbUZ5195ifHprSkAJKAEloASem8Bxz83Yd2s5ImJDnnoMCxMbVM3dBlVztYKBwdPL+ERERCAmJgaOjo6pxzh37hyyubsjLDwMIcEhKFmq1HNfo+749hJg3/Hw8ICzszOsra3/dqPUaaiz5MyZE7a2thkC4o0TsLy9vbFwwQKYmJoiMDAA3333PU6fOoU1a9fAzNQMVlaWaNuuHXLnzoNNGzfixMkTYDpjtWrV0Kx5C9z28MCcuXPg6OCIpKREdO7SVQQrP19frF27VpTEQZ9/niGw9aBvDwG+vIEBAciWPXvqTW3btg1urq6wtbPD1atX0LBhoxe64bCwMERGRiBLFpcXOs4/7RwVFSmL0JdxfIaNnjx5EuXLl4eJiQl8fLxlYevk5Aw7O7t/vP5bN2/C09MTtevUyZB7THtQ3is9AszP/qfGa4mLixUB3MUlq9xLRjSK7vv27UPFihXg4PCX8ZDec508cQK//PILxo4b9z/5pvd4up0SeBYC169dw9y5c9F/wABkTzMGPssxdFsl8KIEOKaHBAc/Ng+/6DHT7s95nmM1F3gv+nGh4OBgbNq0EZ07d0GKE5U2KI/t6PjPc9KFCxdAwbh06dIvfA0vk40eC2D/YOqMjoHaG14lgZAof0w73Bux8ZFPPW1hl8q44XcShobG6P3ej3C2dn/qdvPnzYOHxy189fU38gE1tnlz56Jy5crw9vHG3Tt30aNnz1d5a3quN4QAA4QoYLm4uEjwUEo6Ycrlm5qagnoNBSz+OyPaGyVgEdD06T+jRPESqFqtWupkvm/vXtA4aNmqVSojGjYTJozHwIGDJBJr2NAh+P6HSfh90yYUKlwYFSpUwJo1q+Hg4IB69epj6dIlEn1lbGSMgYMGZQRrPeZbQoD9cP26dVi/fh1+mDRZXmC2mTNmIH/+/MiUKRMOHz6Mz/r0ee47Zp/dsH49du/ejR+nTRNB5WU3Gsb79+9D//4DXvjQFIA3btqI5s1b4N69e+DE6ObuBh9vbzRp2gyNGzd+6jkoel26dAndu3d/4Wv4twMc2L8fPg980KHDB/+46YAB/SX0lS0uNhYjR32VId4DLmAWL16MVq1aPXPEZ2xsDFauWAE+vzJlyuKDDz+U66UxzUaPGicUjm3sRxTkLC2tZLxkeC+FRXNz83/Dpb9XAk8lwL61Zctm7N61CyVLlkK3jz6S7ej84e8YHZgQHw87e/vUPsdIZ/Y/igHcxtLSUukqgRciwH60YP58HD58CJOnTBVP8MtuZ86cxvVr19GmbdsXNsJ9fR9i8qRJYoceP34cq1f/JuIVBRA6WJs0afrUwre7du1CbEwMGjZqpNGOL/sBv8DxaAeuXbMGGzZuwORJk5HlTzvwBQ6puyqBdBH4/cocnPDcJNsawEBqX7EZG5qgau62qJSzGdZf+glXfI+itHs9tCrW/2/H5bjz9ddfybjZpHETlC1XTraZPWsWqlatKuLDnTt38EmvXmJH0klNBzDn7pRUMSMjIxG+OPdzG0bi8N98N3SOT9ejfGM3SitgMZ2Q/0/b3NzcVMBKC4Q1tcaNHYN27d9HYkICcuXOLeLBtq1b4eXthQoVKspikBEWR48exelTJ9F/wEA5xJfDh6FGzZpijHTo0AHOmTLh+PFjuHnjpiwACf/69es4eODACwkPb2xv1AtPN4GgoCAsXbIYMbGxkpraqVNn2fdpAhYHfEb1UBy1s7NFnjx5JeqJQgKVaQqvQYGB0pcZcUVvsqubm/x81cqVuHv3jgisjFDiPlS8eUw2Thw8Bo9fsGBB+dmN69el7hy34fZMM7OytpbrvHbtKiIiIpE9WzbZ5uLFi38TsOjp9bx7V0I/GUnGQnyciHhtN27cQHxcnPwsU+bMshD19LyLBw8egPPnpT8uoWXLVrh//z5OnDiB3r174+DBg/J+jp8wQe771q1bssDNkT27XMOpU6dSBSzux8gtRj3lz19AJkMvLy+5l0ePHsHMzBQFCxaShQSv8+rVq3KPDHcms4CAR/DwuC2/L1y4sFwfc7Q5yZKnv58ffP188f77HeTnFHp4XOZwFyhQQHhSwPqk5yfInScPxowZg+bNm6NcuXKSonz79m3Zx909m4wzvK579zyRL19+YX/zxg25Jy7S+YfsKVTlzZsXDo6Ocs3379+D70NfWFlb4cCBA2jVqvUzC1i89nVr14h48MsvS2VBRIFg69at8jy4KPLx8UG5cuXl2GdOnxYB0czcHFu2bJHnV7Ro0XT3d91QCaQlQAN1wfx5KFKkKDZu3IBvvh0tqYScOy9euiip+X6+fihQsKBEjfz++yYRtimobt++XQThSpUqKVQl8EIEOA7OmTNbxr78+fKjSdOmMibTIZK2cWznHMuxmSIqnSr2Dg4yl/k/eiS2H8dMLuQYOR0eHiHzKut2PE3A4va3bt0E7QBbG1vkzZdP5hz+/86d5DkiZ85cMudyIcc5m3MT03h+W7USkyZPEQGL82zrNm1w7do1UKSiE4fOBc7hsXGxyJUrl0RHpxWwONdyTjQ2MkKRokVl7uL/6eDyun8f1jY2Mr7z/5yDPG7dkjnIzd0dXFBwXud5LSwtZN7iXEtedLpFR0fJdb+Kr0e90IN/TXYOCgoUJxTnddesrviwY0e5MhY0NjQ0QEBAIJCUJM+JfYONYyPtEooDHA/TljB5TW5LL+MNIDD1YJSp+UAAACAASURBVE8ERHjD2tQeBTJXwDW/E4iKC0exrNXQtHAvnPfZh503lkiElrWZI4bV+uVvd7Vr505ZO+TPn09sW/ZfExPTvwlYH3XvjiNHDkv2En9Ph2jNmrVw7/59Wa80a95cnPm0r3t+0gvbt22T8bR8hQpvAEm9xOcl8FoIWLGxMSLdGhkZv1TvDtP2XnYR9z/++ANTp0yWBT0MDHDu7BkMG/6lRHzcuHEd4WHhklbYpm07MI83ODgIXbp0lefzw/ffI0eOHGJIvN/hA5k8zp87J9t16txZJm1O5CpgPW93fnf2u3TpIo4fO47atWtj5swZGDFylPSnJwWsT3v3xpHDhyVSJl++fLh95zZcXd2QLVs2bPpz4bd37x7s2b0bY8eNx7mzZ8WwoaeVKTqM4ipcpDDWrFmDyZOnICI8HKdOnxLRhmKru7s7atSoiUULF2D4lyPEOP9u4kQ0b9FCDKZdu3YiV85cYkBROOGx3d3ccd/rPtq0aSsiTtoILBpWx44dw9mzZ0TQYfhwpsyZ0LhxExw6dBCBAYFiWHPSGzZsOPg+7t69C0WLFBVPDUXkvn37iYC1Y8d2NGjQEPv27hExqmmzZti3b2/qp1Yp6H3wwYciiqVEYE3/+Wcx2mmQ0+Cm6LJ40SIRnyhIMR24Vs1aqFS5MhYtWoioyCjkyZNHBOtixYtj7tw5cHNzBz3dXIxUr14DK1csl7p4+Qvkh5GhER4FPEK7du3Fc3rX8y5KlCghz6dUqVKoW7eeCFh169aFqamZCNx9+/aVRQi3p7FpYWklIlzLli1gZWWNX5YuwaDPvxD2k374Xtg/fPAQ23dsR5kyZeQ5cFHSrdtHwovPpECBgrh75zb8/P3Rs+cnzyxgHT16BDdv3kT7du0xYeIE1KpVG9WrV8eyX36RCLPu3T8G+yj7Vb/+A0QIbdGypRgVM6ZPR8dOnR6rCfjuvLl6py+DABf5FKLYdznmFSlaBI0aNcamTZtw8uQJDBgwALdv38GO7dswePAQLF68CJWrVJV3eMzob9Glazd5z7UpgRchwBRszmtVqlTBb6tWoU/fvrLA4hiblJiE06dPiWOoRvUaMpa3aNESRsbGMpaXLlNGHAwsG8FtatWsifPnz0vajLubG67fuIEBAwbiypXLf4vAYt8/f/6czB0etzxEMKrfoIH0fc6xBnQk3bwpc+H169ewceNGifinsHHh/HnMnTdfBCyKY++9V0lsUGdnJ5nvDh06BH8/erPjcdfTE0OHDsOePXtSI7AogFGk4hzEcgUNGzXGL0uXIjomBoUKFcIfly6iXv0GKF68uDAJDglG9uw5RGBjdPiGDeuRM0dOPPR9iMyZs0ikxZdfDkepkqVQuEgRlC1bVqNz09kpL1w4j1MnT4kdOGvWTHw5YgTs7R2waOFCPHj4AMWKFRMnIR1NWbJklmfWunUbiZTeuGGDOCVpw2lTAs9KYPye9xEZGwY3uwJoV+ILPIrwwsn721G/QFcERD7EuotTEBUXJoc1MjTGt/U3PnYK9sEFC+bLWpprlxXLf0W79u1lffJkBFaDhg1FoGrWtJnUXOVaIDgoGLVq18b8+fNknJsxY7qUVBkydJiI9IxY5bG0vb0EXgsBK+nJxMWXxDsjBCwuNJf/ukwW+/QcjRo5Qhb7lSpVlqumJ4TGCaMduBjnQrpHjx7yu3HjxqJkyZLwvOuJ9zt0kMUcDQh6vxiRwSgNFbBe0sN/iw/Dl3bdurWws7NHnTp1MHXKFJSvUB5Vq1b7m4BFzwVT6SiIFCxUSLyfK5YvR7PmzTB0yBD89PN0SRE8cvgQhg4bLsZOJmdnEWgo3Li6uaJ27Tro9UlPmSSKl0j+OidDf5k60f7998XYnDp1CsaPnyBCycgRX0r/pvePKXNfff21CELz5s3DoIEDJQqHggaNVRq1aQUsRlkxlZbnZEQXo3iYZkvBh5GO9G7Tez169GiMGz9OFrGFCxeRuldeXvdFaKMoRUF5zuxZso+3jw+aNGkikVkUeTjcUOzicTt27CTXliJg8XeMzqLod/nKZfTp0xdz58yRlF+mWFC4oQhE1hRipv74Y2qNqh07doj3vHfvz8RAZMQlhSVGyvFvTtIpKYS8H4o97tncRfy5fPkPHDxwUHL9Bw/+AqYmJoiLixc+TCf29vISUa9T5y7i2d66dYtcZ8WK70kEwNdffyP3xnDs9u3fF0Znzp6RxQdZLPtlKb4cMVL6QqHChVC5chUR5bj479qt2zMLWBMnThDPFz38nvfuiZd+0KBBklbI0G6mUnOxNHnSD/hx2k+ykGGtNvKl0E+BS5sSeF4CdCLd9/JCzhw55P1mvxo3bjxYA5D9kg4hjh0zpv8sczXHOIru7K8cb4YMGfq8p9b9lIAQYP3GpUuXyhhMYfTnn38SBwRFAzY6eNavWysR+ByPDxzYL6njxiYmIvhUrFhRUmLW/n/t1AkTv5Mopd6f9kotCfDj1KmoXKWyzAFpUwgZsctzffHFYHFo3L7tgZkzZ2LSpMmpNiidM9N//klSa1etWoUWzVugaLFiuHnzBmbNnIkpU38UAYvOFVtbO/j7+6FuvfrJUbJmZmLH8v2ZMH4cxo0fjzNnzqYKWJxnaFsfPXZM6mmNGTNWjskxn5G+O7Zvl8jwypUq4bvvvsOIkSMlOpLvKOdIRqJxWzpW1qz+DY0aNxGbYcKEiciponK63y5Za6xdI44yRqPQDqz4XkWZ2+mIo+OPtsCJE8exdcsW9Oj5CVasWC72ycMHD7Br9y6J3E8pV5DuE+uGSgDArKOD4B1yXVhUyN4ETYv0YrAf/CPuYdGpkQiLDkzllMk6O/pXnfUYNzpA586ZnVz+xMBAxNWuXbuJ0P6kgMV+TZGdmUtmZuYi6u/du1fsc/Z7CuN0DDPylJGcXJ9wHaAphG93V1UB6ynP94+LF1C0ePJC/clG44FRDoy6YroPvbmtWrcRA4aGBoHSaKFKTK8T02toLMfHx2HYsGEYPHiwpNlwgc4IE/6bkVcNGjSQBagKWG/3C/cy7o7iCAUEO1tbMQy5kGOaFiP9+HGBtDWwKE7MmzcXbVq3gXu2bBKRyLoXLO5OAYdh5xSdEhJZpyhO+iCLJ2bKlBnDhg0Vg9TG2hoet29LxAKFB6YFLFiwAMWKFZXoK4btTpkyGePGTxARdviwoRIKTAGLIb80ojlZ0VPCYxkYJn+NhPU22NIKWBRVKLA1btJEipJyIlr922+SmkHvMsVeezs7idIaO3acLEwrV6kiYhejuehVpHGcNoWQiwS+pxSHGG1FDzRTGmnEMTqIHmu+dy1btsTy5b/KQoI5/eTyxeDBWLpkiXiTS5UujcuXL4sIxWirE8eP4YvBQ1IfKd91FjZ3+fNrozbWNiIcUmTr/dlnsjBIK2CtWb1aPO8U3+55eoqXvOcnn2Do0CGSQkjBkdswao7pToyq4r1xvDh86JA89xo1aohQxwKYKeLhBx92lAUTFyCdu3QBc8NpKDBKj14qRoUxfS88LAwLFi5A27btnknA4nG///47qZ1F8ZJj3u5du0W0PHH8uLAlyxQB6+fpM3DxwgUcPXZU7oGiJz312pTA8xDg4pwRGx07dkw1UPmxlNZt2sp7HxoSIhF+yQLWdFmAMz2BkZoUglu0bCXRjtqUwIsQYOTV7NmzkSVzZrEFb9+5g7Jly0nKNz98QtG+ZKnSEgVLkWn/vv3o8MEH4vBYsnixjOmcm44cOSLzzN07d6RfFylSRBZ0bBTEjIwMHxOwmDK+YvkKDB4yRMZ8CkGjv/1G5t+9e/ZICi2dUIzg4jtCp87w4V+KUMH0eC74WDczbQoh51lG8vIdYlTPlctX5MMcp06dlPRwOm5ZA6tmrVpYuHCh3J+hgaGUF6D4xogfjv9MT9u/fz9CgoOkVMG69eswatRXYlfQocv5jJFoKV+uZTQ2a8mO+HI4Fi9ZmiF1Nl/kGb/O+9LZx3mYz4k2EdOpGFnPAv0sgs05lhFWFFIXLpiP8RMmYuHCBShRoqQ4tRwc7GUdok0JPA+BE/e24vfLMyG1OwBUy9MOxVyqYffNpbjhdyq1JhYrZNUv2B1Vc7VMPQ3HAmZI0JHMFH9JW75xQ1Kne/bsKU7jtDWwOO7s3LFDxk86gplOyH3Z11kLmGVA2rRtI5ey6rf/a+8+wKuo0j+Ov2m00EIHaaJIVZqCgiwoxYaiAqJSVVABC0UsWAApSrFQxV0VVEAUV8BGUREblqUpvSm9g9QQIOX//70YNrAsGwIXJvCd59kHF3LvPfczJzNnfvOeM+97QYnCeKYip2XPpp/XEGAdZ1+dKMDSj48b955fFEZFRvnFfJu2bW3WrFk+r1+g++P22y23NPT5/iqRPBB3wOIT4q1I4SJ2e6NGPnD47ttvPCQ4cCDOF5hOLuPVhbT+rX2HtC++nX66Hy1Ni4CeeKm7Z40bN/YDtAbBWsxYVT2ffvrpUQHWfW3a+PQ+lZBXu/JKD4A0jU53MjSIGTVylNWtV9fL9/XAgXLlL7UWLVr40+mWLF7s62NoLB0Xd8DLcjX1RgNu3X1u1qy5Dzj3x8bas88969U+usuqwaiqhhRg6XdCIYoqvxSuqURYQZgG3VpfSu356ssv7MF27Z1CIZo+p0zZch6keXunT/fgRoN73XXOlDGjVzPqzu/0r7+2vHnz2HXXXe/TL7Sws6YV6UJ25g/f2z333uffUwM4BTsK7R566CGLj09wlzZt7z8SYJUrV9YmTpzoA24FZAq69DRQD7AqVPCL3kULF/oAvV79+jZk8CAvV1ZVh6o7NMhXgKUQSi76zuFhYTZ+/Hh7sF27EwdYa9Z4+JYcYLVq2cqKFivmJ+cDBw9YzatretCnCizdVdKdV1U9Vata1Xr36W1dujzmd8179OjuC+L/Z4D1ut8J1z7QcaluvXpebadppLozqwA0tZsq78LCw+xeXzj78IWJjokKU7dt3WbZsmf3AEtrYQ0cONCGDBnqPq+++orF7Y/zijwGFqnV5ueOFVCgvWbtGuvcucuRh6jowShaIy5LdLTF7ov1AGvjxg02VAFWn75eMTJy1Ej74/ffj1RPI4vAqQho/RYFU3Xq1vOQSeccrfV3731tbNq0qX481jhQIb+qg3VuUcWvzpGqWGrUqJGfuzUe1PlS/925U0fr+vgTfnNT76dAQpW3C+YvsFtvvdWffK0bWAoodJNH1V6qTJj8+WfWqXMXGzJ4sDW8taGHGlqs/b42bX39N03L080mrcuqqqthw1/zz9UTeDW1XufIKVMm+3qIPbo/523Ili2rvfjCC9ard58jAZZuuLw9aqQvF6BxgD7XA6yRI+3OO+/0AEuVZpreoyputUE3bzS+VeWVzpH63dX4Q+cOfWfd+G334AP2zrujQ/bE3VPZz0F9rR4+o7GcbiTpfPrnnzs9wNQNIo0ljg2w+vUf4EuWTJ4y2R9woXFSvvz5g/r1aFfABQ4cirW3Z3e3NX8u8paGh0VYgWwlbMve1RafePBI6y/IcYm1vLyHRWf495PAVSmlY2Ct2rWsUqXK/rO6kfzGP/5uDz/yqH3wwfs+5k1exF3ncx3HdPMqV0yM93WtJ334+DfHxowe7TcBVJ3Vs0cPP77oeoft3BZIGWDpvKhrkZSbrklC/hTC9DSFUDhaQFZr3KhcUuWKuhDXBfmmTRt9/QOV9GqRWKXKqubQL53uuhXIn98HIKrGUiWX7hTnzZffBxv6WW36xY7dt8+nILIhcDyBvn36WJXLq3hok9xnNH+8+IUlfCqaBr958xx+CqEGjwpFx3/wvoerqpBSGKRAS7/smuamUElPklMZf4WKlXyg/NhjXfzuhga+2vSzuiuig4SmyR1+8kcWn2KowEQhj8p69RScjRs2eCiiu7oKMfQ+er0WDNf6F7pbrfa1at3a1q9f54NcHWi01b/uOl/EVVViegKffi+0ppNOcoNefdXv+GoQrbW6NA1C68lpKl58QoJXd2X6/zvhLVu09EHy4EGD/H0VqKgSSguK6w6kBu0xMblMT9JTUKwD3IL5830NkYEDB/iAOnOmzL7gfcdOnY8OsBYt9DvpCpq0MLzKmKOiIu2aa66x2tdc61VmqqZSQKaQqFLFih6aPfDgXwHWNzO8MkRho+5Ga+2SK1SBdUyAFbd/v1+Ma7F7hVYyU5WJ7ojrGKJ1xTTHX9OQXx8xwqflKdDasmWztWnT1tdR8Qqsln9VYP39dXv66Wd80XlVisUfivfQKjExwdfjO5kAa9vWrT4NNOXirzrO6b0SE5O8b+jfFEaqD6hEXH1PVYOqKFDFGRsCaRXQhXB4RISfN5M3nZP1P13IKSDQvylAUMVp8qLF+t3UotH6XWVD4FQFdDxTX9KDe7RpPStVOxcoWMiDHR2z9eRVbb1697axY8bY8hXLLTpLFsucJYvdcssttmvnLvvp55/8SdXqt1rbZcKECRYVGekPMOnW7Wm/QFNgpbGlbibVql3b113UNMTkJ3A1uaOpXVKypJ/fVHGjxeLVnpatWvtU8xGvDffziX4XVLkwdOgwD7BGjXzL3zdnzhw+lV2hk6aVr/x9pS8ir/PikQosTQusUcN69uzhC7jruP7HqlU+9U/LDSg4ORJg7dzpFdaaTqgbLwqrrrrqKq+W1hIcOjfp3K41bKpWrUaAlYbOqHGgntpWv359f7VupstWx7hff/v1cIBVp66PDVQx369ffz8na8xXpkxZr4xXZRwbAmkVWL9rhU1YMNg27V553LfIE13YGpZ/yC7MpQf2/Luv6VinsaGukzXeTr7G2L5tmz/cQuNJ3ahVf9X/VHWlm6C6blY/z5UrxsfwOv7p+LZ79y7//+rPel+NP3nKdVr3avp5XcoA63hTodVX0m+AdSDOF3XLl79Ail+dE++cxKQkW750sZUpd3gdAzYEzgUBBUg6KSQ/Sv50fyedkHSw0MlIJ5X/tumAoxBMoW9yaHu8n9X7KeBV+JT8c/o7XaSquinlZ+g9dXJLzdN0/H137/awSxfBx25yUvtS8156rS6S9b11slU79f5qiwLr5BPz6bTWyVqfmXJuv9qsNuiEfSLT5HYoQNf6WrrAOhObgkJVtM38YaY9+dRTDJrPBDqfcURAx4fZs2f79F091ELHHjYEzrSAzg3J574TfbaO76oYVMj1v47nej8dx5N/zs8F+/f7a1OGE4fPS/v8oR+p2XQOO/Y8++/zR7xfVOp8k5oARDdl9Z1SXmAoXMuQMYNXTLCdOQH1l6e0NmfnLh5QsiFwqgLb9m2w6SvG2O/b5ll8UrxPKYwIi7QiMWWsXsmWlj9bsVP9CF6PwHEFdL7T8jS6ttU117Gbxn46T+kBZqGa9REWqgoslcmqQkOVUqk50erLq4ogMjLK8uTNS5dBAAEEEDhFAT12XdVqyZUDp/h2vByBkxLQRZsqVH2x7XLl/mcocFJvzg8jgAAC6UBAD6tRRZyuhfRwHzYETqfAjtiNtiN2swdYOTPnszzRPAHwdPryXscX0E19jfGO9yxAHet0s183Y0K1hSzAUoOVwOnuj6dYqdj0hTVFJ7WBVyrekh9BAAEEzmsBnVw4pp7XXeCsfnn631nl58MRQOAsC2hNTj0AoHTpMqmuMD/LTebjEUAAgUALhDTACvQ3p3EIIIAAAggggAACCCCAAAIIIIAAAulCgAArXewmGokAAggggAACCCCAAAIIIIAAAgicvwIEWOfvvuebI4AAAggggAACCCCAAAIIIIAAAulCgAArXewmGokAAggggAACCCCAAAIIIIAAAgicvwKnLcDSo3/ZEEAAAQQQQAABBBBAAAEEEEAAAQQQOJ6AnlSY1u20BVhpbQCvQwABBBBAAAEEEEAAAQQQQAABBBBA4EQCBFj0DwQQQAABBBBAAAEEEEAAAQQQQACBQAsQYAV699A4BBBAAAEEEEAAAQQQQAABBBBAAAECLPoAAggggAACCCCAAAIIIIAAAggggECgBUIaYMXHx9uhQ4fMkpJShRAWFmYZM2Uy/cmGAAIIIIAAAggggAACCCCAAAIIIICABEIWYCm82rZ1i4WFhac6kEpIiLeI8AjLV6AAewcBBBBAAAEEEEAAAQQQQAABBBBAIGACynv+/PPPI62KiYmxyMjIkLcyZAHWgbg427FjuxUoWCjVAVZSUpItXjjfypa/LORfnA9AAAEEEEAAAQQQQAABBBBAID0KJCxZYvHLV/hsp8iLSlhEuXLp8WvQ5nQqsGrVKtuyZYvlzJnTdu/ebQqwLrroopB/mxAHWDusYKFCJ/UlFvz2q5W/rMJJvYYfRgABBBBAAAEEEEAAAQQQQOBcFkg6eNAOzZptsR9+aAdXrDzqq0YVKWJZ7mhsGapVs7BMmc5lBr7bWRLYunWrh1YRERG2b98+L1TKmjWr/7cqsrJnz+5/5smTx/Lnzx+SVqbLACsuLs62btni62Xly5fPDhw4YHv27LGkpESfsii4DBkyeBJ44ECcw0VFZfB0UJuAt2/fbrlz57bo6Gj/u4SEBP877YS8efOGBJs3RQABBE6HgNYW3Ld3r+WMiTkdb8d7IHBSAhqYqP9ly57dwsPDT+q1/DACCCCAAAIIpF3gwFfTbe/oMZZ0IM4S9+476o3Cs2Y1i4ywrE2bWqYbrjc75hx98OBB2717l2nWU4YMGf2ambWn074vzsdX7t2711auXOk5SpYsWf6DwHOarVutePHiliNHjpAQpbsAa+PGjfbe2LH+y7br/38Bu3fvYfPmzrWPP/nYMkRlcMiGt97qaCNHvmWrV6+2jBkyWpGiRax58xb+/995+23Lmi2rRYSHW9M777T8+QvYlMmTbfac2aapjzVr1rR69a8LCThvmr4FEhMTbd26dR54KiQtUKCAJ9Cne9NnKJzVZ2hTiebmzZvt8ssvt48++qfVqVPXoqKiTCciHUD+27Z27VpPwTNnzuT9PFQnKc1/XrBggVWuXPlIKHy6TXi/fwvMmTPHxn/wvnV7+hnLli0bNAicUYEVK1bYO++8bQ888KBdcMEFZ/Sz+TAEkgU0iN61axd9kC5xVgRiY2N97ReOgWeF/7z90KTt221Hxy4Wnje3ZW3V0vb/858WN+8398hUvrxladHc9o4aZfHrN1ruAf0srODR60ovXLjQxo17z69d9u7Z4xUytzdqfEamfZ23O+0c++K6BlaApWtgbQpDU25aA2v9+vWexSRfx55ugnQVYAnotdeGW6lLStk111575M7vjK+n244df9rtjRod5fPa8GF2bZ26VqpUKf97gY8aNdIuvrikVa9e3T744H3Lly+/XXXVVdanT2/r2LGTPzXx6W5P2eAhQ0OWGp7uncj7nTkBDVgef7yrZcmc2Sv5tN1ww41Wr359y5gx42lpyJLFi23AgP52X5u23k+1zfrXv2z58uXW5I477Kknn7BHHu1oixcvsnVr19q997X5r5/7UIf23i6l4brL0r1HT8sUgpJiBW5Tpky2229vZLly5TotDrzJ8QV0jBr33lj7+ZdfrHat2ta4SRP/Qf29jpE6zulP7efk/598AtHPKMQ8Ewsssv/OTQGF+FMmf26ffPqp1ahew5q3aOFfVEG5+lvynzruqK+pz6n/6b+T/03hOxsCpyKgvjZq5EibPv0rGzJ02JEK+1N5T16LQGoF1P8mTpxoH47/wK8XTnQjMbXvyc8hkBqB2JGjbO+EiRZZqKBl79TRIooXtz0DXrKkQ4cse+eOlrB7t+3p198OrVlr0Tdeb9EPPnjU2+oG6OJFi/x6QtvUqVPt22+/seef72WZM2f287RmNumcrXGk/tQ1hMaNhw4etIjISL+u0A10hWD6n34f9G+RUVFUZadmJ6bzn0kZYKnSSv8/5aZQnwArhcjOnTutd6/nrUWLlhYWHu53PXTSmDz5c9uyebNVr3G1T/9LnirY78UXrFq1K+3iiy+2CwoXth07dtiYMaPtrrvu9p/78ceZpjvJxYtfaHNmz7JHO3byT1NAoMqsihUrpfMuRvNPt4ACrGHDhlrr1vf43F71nw8/HG+1atWy6tVr2P79+23NmtX+y1ysWHE/GahqUJWB+lMH/SJFiti2bdv8v5MHPWvWrPHgRz/38ksDLSEh0Suw7m7WzH/uRAFW63vu9VJNnWT0Z/Jn6M8nnnjc2j3YzvLmy2ePPPKwderU2cqXL2+6c63qrIT4eCtQsKC3QycjPXhBlVqaFqT2qvRTf6/vrROa/ixerJhFZ83q33HDhg3+e3Xw4AH79ddfCbBOd4c7zvupEu+f//zQypYta+M/+MAGDBxoWbJE+yBkw4b1vv+3bN5iV9esablyxfh+uf76GzxEmDZtqhUpUtT7ABsCaRHQQPbNN9/w86oql3v17m1Zs2az77//3pYtW+rHME3xr1ipspUpU8aD7ZtvvsWPJV999ZUfE5OD+bR8Pq9BQAI61w0bOsQyZc5sFStUtOtvuMFhdN7SxdSunTstPCLCSpQo4eco9bvkdTk2bdrkVQcEqfSltArs2rXT3nrzTdsXG2uXlLzE7mja9Ej/Cwsz27Vzl6kmQYsZa4kTsySLicnlfVNrx6gvHm/qTVrbw+vOH4Ed7R+y+HXr/AtHFSls2Tq0t4jChS0pPt4St22zPUOH2aFVq/3fI3Lnttwj3zwKJ2WApXGhxu9Dhw61CpdVsCuvusq+/vpr27x5k4/xdR2s87iue8qVK29btmz2gKtVq9b25Zdf+nV4pUqVvBJR5/obb7yJ4o/zoCsSYB1nJ59oEfdFixb5xX2duvUs8a/ytY6dOnmIsGTJYjt44KDF7o+1W2+9zQoVKmTjxo3zX7RNGzda6TJlfHrTpIkT7M677vZV8ufOnevTD7PnyGGx+/Zai5atvEUD+ve36jVqWI0aNc6DbshXPBmBlAGWQlANRr788gsPclq2HZQ8sAAAFrNJREFUbOWBgvqg7khoDTYd5DXlNT4h3gpfUNirqOrWq2cKY1et+sPDWF0QvtC3rz308MMeEg3o388rrD7/7DNr3LixFbrgghMGWHc3a24fffSRbdu21asLly1dajWuvtqnG3bt+pg1uKmBJSQmejsff/wJD7rUzuis0d7OrVu22p133eWVEl9Mm+b/rZPau++849WJGuzrteXKX+onr+zZsnvVxa+/zrPvv/veS0RXr17loVjb+x+gAutkOlQafvbnn38yHQub3tHU+vTpYzc1uMnD09Hvvmur16y2e++91+bPn28//PCDdejQwd5//30PFnXMGz58mAf4THlIAzwvcYFly5bZp59+Ym3atLVhQ4dalcsvt/r169vHH39sM2f+YA8//Ij98ccfNmPG19aly2M28q23rFbt2la6dGnr26e33XV3Mw+/2BA4FYFvv/3Wfl+5wq6qXt0mTZxkHR56yKevK1TYu2+vFS1azObNm+t9M3ZfrJ/fbrjxRtu4cYNNnTrNbr/9dg8R2BBIi8D8+b/Zjz/+aLX+VstGjhpp3bp1s+zZc/gSJVu2brGLL7rYFi9ZbFWrVrUcOXLa6lWrrGHDhh54ffLJJ1a7dm0rXLhwWj6a15znAtuatbTEPbuPKETXvdaiH37Y/3/sG2/Y3k8+O/JvYZFRlvej8ScMsPSPY8eOscSERCtbrpz98MP31rDhrR686qanxo+9nu9prVq3tpIlL7E33viH3XJLQ9uze7dfx6iSS+NN3RRv1qx5SJZVOc93eeC+PgHWSQZYqiQY/e471qPn837nrEf353y9q8svv8I0rUGVIhMnfOQVJddeW+fIdAVNs+rZs4c9+1x3mzZ1ql+gq9pl9uzZHnzlyJ7D74jce9993qK+ffvYddddZ1WqXB64TkODzq7AsQGWWvPLLz/b3Dlz7dbbbrNBr75qj3bseHi63nPPWouWLW3KlCleoVWpUmX74osvLC5uv9+lUIVgu/YdbOnSJfbjzJnW9fEnbNKkiX7nWCGrqgV10adw4kQVWLog1NTYSy+9zK688kqbOXOmrVu31po0ucM6dero/VvhktZK6tyli69VtWTJEmvdWoFtmL0/bpzlyJnT76JMnDjB7r//Aa/i0cWppuquX7fO78h079HDK3wU8A586WUbM2aMVa5cySpUqGgrli/379myVSsCrBB30ZcGDrA/d+60YkWL2tJlyzysf/TRjh6UqsqgUePG9scfv9srL79sL7/yqr3//jivQtADLjToVvAQqrXQQvzVefsACAwdMtjXkrzkkkvs9z/+8L7Us+fzNnnyZPtzxw4f5Kp0XGFpr169PRRXeKAgXoNhhegs/B6AHZmOm6BKZ50fq1Sp4lUBQ4YMthtuuMHKli1ngwcNshIXXeRjuK+/nm7Lli6zOnXq2EcTPrKnn37GfvnlFz9faep1qNbmSMe0ND0VArp4mzDhI6800XqkLw0caDX/VtOuvPIqGzpkiOWMyWlNm95pP/30o309fbpX7I8fP97atW9nmzZt9usQ3QTUU7vYEDhZgZ2dutjBlYefPJixbBnL/uwzlrR/v9nBgxaWI4ftefFFi/t1vv97VKFCFjNi+P8MsEa8NtyPm3H79/tNz+QlUXSjXtcxr77yig0dNtynFI58600rWqy4lS5dyj75+GO/1hg8eJA1vfMunxnAdu4LEGCdZIClkEknimefe85/ufr07mU3NbjZKlas6HNzBfrxpIn+ZCSdVDRo1s9t3brFHuvSxfq+8KJ9+OGHdtNNN/kF3dSpU3yqVokSF/rfa2Ctii1VrTz77HN+YciGQEqBYwOsw+vBTLbY2H1+Z+Kllwb+tahdmA+Ob290u0+bUXWWpix8/913tnHTRj/gv/vuO3bhhRf636kfFytWzIYPG2qJSUmWO1cuW79hg2XLlt26du36PwOssWPHWs2aV9sll5TyqsJFixZa4yZ32LPPPuNTCIsWK2YjRrzmJesKb8PDI6xBgwb+1XSBqTZdc821NnHCBLv/gcMB1pDBg61O3boeYKnKsV379l451vWxx6z/gAE2fvwHVq9ePbvwwhJ+50UXsKoYYw2s0P3ObNu61Z7v9bzvO4VVOuZ9M+MbHwwrBNXUzttuu80X/VfQpbVh5s6ZY7Nmz7LNmzZ74H/ppZeGroG88zktoKlYXR/r4ndck5/gq0pRhejqc7t37fK+qIpUBeB9+va1FSuWewC+aeMmu/766+2KqlXPaSO+XOgFdE5SQJo7Tx5fj3Ll7797xbymqr4+YoRXBVarVs1+++03mzplsnXs1NlefPEFPz/NmzvPLi5Z0q644orQN5RPOCcFdEOwf/9+Pp6KyZnTVq1e7VWlqqj/++uv+5QrjZ2WLl1qb735hvXp+4L94x9/94BLx0m9TgErGwJpEYibNMl2vznKoooVteyPd/XpqbtfGaSFKC3bwx0sPFcu2933BTu4fKVla36XZf5rravkz9IUwoULF1ijRo39rzRrY9LHk+yRhx+xufPm2eZNmzzg1wwNzQpRcUiXzp1s+Gsj/Lrm7VEjrXCRov7AM1Vu5cyR0/4161++hlYoHmqVFiNeE1oBAqyTDLD042+/PcriD8VbxkyZbN3aNda+w0O2YMF8f0Kb/l7zdhvcfIuvMzR69Lu+Htaa1WssV+5cPnXmu+++tTmz51jRokW9zFcLcOtntTh81uhoO3DgoE+tUhkkVQqh/QVIj++uAEt3e+++u5lfwKl6auYPMz0UzRkT42tyPPLIo5Ynb15/WqHWyRo6dIi1atXKHxjw/fff2caNm6xJkyY2a9Ysm/7VVxYff8iefKqbn1C+mPaFTzHMkCHKq6Y+HD/eOnXuYmvXrPmvi7jr4lHVN1rzSFUR8+bNs0ULFWA1sWeeedruu/c+XwNrzOjR/nugtbl+nTfXF39XH39v7BhfB06DLoVqWjxef6/punrv/wiwuj5mL7/8ij/FRHe/tZ7NLz//bDO+meHVPQRYoevZmp6wP26/V8lpHylAVSWC1kvTMVCBpwIsTekcOHCgDRky1PvRoEGv2r69e63n871Y9yV0u+ecf2cF3EuWLrEnnnjyyPlRT0XV03szZTr8YAsFWJqmpTU1+vTp6+sCarFtBVkvvNiPqpdzvpeE/guqqmXhooV2zTXX+AWTzrUL5s/3c5qmUmv6fNVq1XwqtR44oOrmb2bMsB9/+tGyZM5izZo3Z9Ht0O+mc/YTtPzI5M8/s5tvaWhRUZF+Y083Iu+6+26b8NGE/wiw+vUfYLNm/ctmzJjhS53cc889VpAb5Ods/wj1F0vas9d2PdfdEvbttcz16tqB774/suaV1sTKVLeu7Z82zcIiM1jO57tbWEzMUU1SgDVp4kRfny0sPMzHhpWrVLErrqjqN6O1xqoKOBRW5cqV24tEFGC9NuJ1Hz++PWqUFS5SxCtbNfbXdXnz5i18Ojfb+SGQMsDSNcaxi7jrOpBF3I/pC1pXSHcwkhITPXjKlTu3L9qpC/yoDFFWoEBBv5jTFAUNaPbHxVmOHNn9ol2lj0qTtWC2pmnpFzR/gQI+ANqxfbutWbvGf2FLlLgoJE9qOz+69bn9LRVgPaGnEGbJYjlzxvgi2TVqXG2lSpf2fvTee2Nt6ZIl3o90d1il4wq1WrZq7f1SCx1v2rTRGjdu4oGDnpT5t7/V8imGEyZM8Mqnmxo08P6rcEIXfqouVFnu8hXLvXLrqSeftEceffSvpxCu80GTPvfqq1MEWKrAatzEOnfq6BeW0dGHK68USOn3QAvP/75ypVfxKGxr2rSpRUZG+VRELY6r0ng9XldVXAqwVq5cYQ+2a29auFQVWLoTM2fObF/LQUFeZESERUVl8FJjAqzQ/Q7o2KdpBwpGk7ft27f7ySMxMcH7Sp48eX1dNQ1ESpYs6f1I1Qdaq0Nro7EhkFYBDUjUx1RNmrzpnKy1MjSwTUpK9IdA6I6tQgVVOqv/vfHGG/7wh/pUHaSVntelEBg4YIBVr1Hdp9dr03hOfUznTj2V0AOsqtX85qYqg7t2fdwfQKLqwVq1ansFITco6VJpFdAyCuUvLe83wLX5lNbRo61M2bI2d+6cwwFWnbr+UIs333zT+vXr7+fkZ57u5lXybdq2ZRp1WvF5nQvEL1xoe1573eL10IpDh45SCcuQwSJy57Js97e1qMqVzfRUgRSbztdaZkRrXqkYRIUeh2dmhPtYUoUgGzdstIjICCtU6AL/N83CKFWqlB83tS6urlW0rqrWY9XN7GeeeZabU+dR30wZYOl6WOtBp9w0BkznAdZ2K1Dw5KbhLV4438qWv+w86gZ81XNNQIMZXcjpyXAn2hRgaV0EVWOlvCA8Ux46wGiabfJUIH2uLjY10E/t2gx6vQZmWl+LLXgCOskoaPz8s8/tue7duWgL3i46p1ukQY0GuB9PmuQPqeA4cU7v7kB/OZ3v9CTebt2e9gp8NgTOpIDGSp07d7KOHTt55QsbAqcqkLh2re19a6TFzfvVLDlACAuzjKVLWda2bSyiRIlT/YgTvl5BmG6GFyxQ8MhTYEP6gbx5YAR0baEp0qq6P97TfLUck4olFHqG6mm/YUnHxmaniUeN37Z1iy8cnNo7XQkJ8V7Fki9/gdPUCt4GgWAKqApQi61HRUZag5tvPrJgYjBbS6vSq4CqYD4c/4EPLkqXLpNevwbtTqcCKi1//fUR/sQtPcSCxdvT6Y5M583W+VZP0k2IT7C299+fzr8NzU9vAlq/94svptnOP3da+w4dUn1NlN6+J+09OwKJ69ZZwoYNHmJFFCho4cXOTECvBdx379ntTyxM7U3vsyPEp4ZCQDPaFGL+t019QiFWqLaQBVhqsEIs3XU4kgz/j28RFh7uF/KpDbxChcL7IhBqgeXLlnl55WUVKjDlLtTY5/n76x4Fx9TzvBOcxa9P/zuL+Hy0C2gq1/p16/0BAlxo0SnOtICehL502VKrXLmKT7tiQ+BcEEiuf2F8eS7szfT3HUIaYKU/DlqMAAIIIIAAAggggAACCCCAAAIIIBA0AQKsoO0R2oMAAggggAACCCCAAAIIIIAAAgggcJQAARYdAgEEEEAAAQQQQAABBBBAAAEEEEAg0AIEWIHePTQOAQQQQAABBBBAAAEEEEAAAQQQQOC0BVixsfvQRAABBBBAAAEEEEAAAQQQQAABBBBA4LgCWbJEp1nmtAVYaW4BL0QAAQQQQAABBBBAAAEEEEAAAQQQQOAEAgRYdA8EEEAAAQQQQAABBBBAAAEEEEAAgUALEGAFevfQOAQQQAABBBBAAAEEEEAAAQQQQAABAiz6AAIIIIAAAggggAACCCCAAAIIIIBAoAUIsAK9e2gcAggggAACCCCAAAIIIIAAAggggAABFn0AAQQQQAABBBBAAAEEEEAAAQQQQCDQAgRYgd49NA4BBBBAAAEEEEAAAQQQQAABBBBAgACLPoAAAggggAACCCCAAAIIIIAAAgggEGgBAqxA7x4ahwACCCCAAAIIIIAAAggggAACCCBAgEUfQAABBBBAAAEEEEAAAQQQQAABBBAItAABVqB3D41DAAEEEEAAAQQQQAABBBBAAAEEECDAog8ggAACCCCAAAIIIIAAAggggAACCARagAAr0LuHxiGAAAIIIIAAAggggAACCCCAAAIIEGDRBxBAAAEEEEAAAQQQQAABBBBAAAEEAi1AgBXo3UPjEEAAAQQQQAABBBBAAAEEEEAAAQQIsOgDCCCAAAIIIIAAAggggAACCCCAAAKBFiDACvTuoXEIIIAAAggggAACCCCAAAIIIIAAAgRY9AEEEEAAAQQQQAABBBBAAAEEEEAAgUALEGAFevfQOAQQQAABBBBAAAEEEEAAAQQQQAABAiz6AAIIIIAAAggggAACCCCAAAIIIIBAoAUIsAK9e2gcAggggAACCCCAAAIIIIAAAggggAABFn0AAQQQQAABBBBAAAEEEEAAAQQQQCDQAgRYgd49NA4BBBBAAAEEEEAAAQQQQAABBBBAgACLPoAAAggggAACCCCAAAIIIIAAAgggEGgBAqxA7x4ahwACCCCAAAIIIIAAAggggAACCCBAgEUfQAABBBBAAAEEEEAAAQQQQAABBBAItAABVqB3D41DAAEEEEAAAQQQQAABBBBAAAEEECDAog8ggAACCCCAAAIIIIAAAggggAACCARagAAr0LuHxiGAAAIIIIAAAggggAACCCCAAAIIEGDRBxBAAAEEEEAAAQQQQAABBBBAAAEEAi1AgBXo3UPjEEAAAQQQQAABBBBAAAEEEEAAAQQIsOgDCCCAAAIIIIAAAggggAACCCCAAAKBFiDACvTuoXEIIIAAAggggAACCCCAAAIIIIAAAgRY9AEEEEAAAQQQQAABBBBAAAEEEEAAgUALEGAFevfQOAQQQAABBBBAAAEEEEAAAQQQQAABAiz6AAIIIIAAAggggAACCCCAAAIIIIBAoAUIsAK9e2gcAggggAACCCCAAAIIIIAAAggggAABFn0AAQQQQAABBBBAAAEEEEAAAQQQQCDQAgRYgd49NA4BBBBAAAEEEEAAAQQQQAABBBBAgACLPoAAAggggAACCCCAAAIIIIAAAgggEGgBAqxA7x4ahwACCCCAAAIIIIAAAggggAACCCBAgEUfQAABBBBAAAEEEEAAAQQQQAABBBAItAABVqB3D41DAAEEEEAAAQQQQAABBBBAAAEEECDAog8ggAACCCCAAAIIIIAAAggggAACCARagAAr0LuHxiGAAAIIIIAAAggggAACCCCAAAIIEGDRBxBAAAEEEEAAAQQQQAABBBBAAAEEAi1AgBXo3UPjEEAAAQQQQAABBBBAAAEEEEAAAQQIsOgDCCCAAAIIIIAAAggggAACCCCAAAKBFiDACvTuoXEIIIAAAggggAACCCCAAAIIIIAAAgRY9AEEEEAAAQQQQAABBBBAAAEEEEAAgUALEGAFevfQOAQQQAABBBBAAAEEEEAAAQQQQAABAiz6AAIIIIAAAggggAACCCCAAAIIIIBAoAUIsAK9e2gcAggggAACCCCAAAIIIIAAAggggAABFn0AAQQQQAABBBBAAAEEEEAAAQQQQCDQAgRYgd49NA4BBBBAAAEEEEAAAQQQQAABBBBAgACLPoAAAggggAACCCCAAAIIIIAAAgggEGgBAqxA7x4ahwACCCCAAAIIIIAAAggggAACCCBAgEUfQAABBBBAAAEEEEAAAQQQQAABBBAItAABVqB3D41DAAEEEEAAAQQQQAABBBBAAAEEECDAog8ggAACCCCAAAIIIIAAAggggAACCARagAAr0LuHxiGAAAIIIIAAAggggAACCCCAAAIIEGDRBxBAAAEEEEAAAQQQQAABBBBAAAEEAi1AgBXo3UPjEEAAAQQQQAABBBBAAAEEEEAAAQQIsOgDCCCAAAIIIIAAAggggAACCCCAAAKBFiDACvTuoXEIIIAAAggggAACCCCAAAIIIIAAAgRY9AEEEEAAAQQQQAABBBBAAAEEEEAAgUALEGAFevfQOAQQQAABBBBAAAEEEEAAAQQQQAABAiz6AAIIIIAAAggggAACCCCAAAIIIIBAoAUIsAK9e2gcAggggAACCCCAAAIIIIAAAggggAABFn0AAQQQQAABBBBAAAEEEEAAAQQQQCDQAgRYgd49NA4BBBBAAAEEEEAAAQQQQAABBBBAgACLPoAAAggggAACCCCAAAIIIIAAAgggEGiB/wNGjaXdRJzXMQAAAABJRU5ErkJggg==;" vertex="1" parent="1">
                    <mxGeometry x="1420" y="229.92999999999995" width="830" height="170.15" as="geometry"/>
                </mxCell>
                <mxCell id="77" value="10.0.0.0/24" style="text;html=1;align=center;verticalAlign=middle;resizable=0;points=[];autosize=1;strokeColor=none;fillColor=none;" vertex="1" parent="1">
                    <mxGeometry x="1070" y="180" width="80" height="30" as="geometry"/>
                </mxCell>
                <mxCell id="79" value="10.0.2.0/24" style="text;html=1;align=center;verticalAlign=middle;resizable=0;points=[];autosize=1;strokeColor=none;fillColor=none;" vertex="1" parent="1">
                    <mxGeometry x="1099.9899999999998" y="880" width="80" height="30" as="geometry"/>
                </mxCell>
                <mxCell id="80" value="10.0.1.0/24" style="text;html=1;align=center;verticalAlign=middle;resizable=0;points=[];autosize=1;strokeColor=none;fillColor=none;" vertex="1" parent="1">
                    <mxGeometry x="1049.35" y="500" width="80" height="30" as="geometry"/>
                </mxCell>
            </root>
        </mxGraphModel>
    </diagram>
</mxfile>